<?xml version="1.0" standalone="no"?>
<!DOCTYPE svg PUBLIC "-//W3C//DTD SVG 1.1//EN" "http://www.w3.org/Graphics/SVG/1.1/DTD/svg11.dtd" >
<svg xmlns="http://www.w3.org/2000/svg" xmlns:xlink="http://www.w3.org/1999/xlink" version="1.1">
<metadata>
Created by FontForge 20161116 at Thu Feb  9 19:21:15 2012
 By Jimmy Warting
Quattrocento Sans is a Classic, Elegant &#38; Sober typeface.
Warm, readable and not intrusive. 
It's the perfect sans-serif companion for Quattrocento.
</metadata>
<defs>
<font id="QuattrocentoSansRegular" horiz-adv-x="642" >
  <font-face 
    font-family="Quattrocento Sans"
    font-weight="400"
    font-stretch="normal"
    units-per-em="1000"
    panose-1="2 11 5 2 5 0 0 2 0 3"
    ascent="800"
    descent="-200"
    x-height="460"
    cap-height="660"
    bbox="-43 -260 1143 848"
    underline-thickness="48"
    underline-position="-95"
    stemh="66"
    stemv="70"
    unicode-range="U+000D-FB02"
  />
<missing-glyph horiz-adv-x="266" 
d="M65 243c0 36 30 69 68 69c35 0 68 -33 68 -69c0 -38 -33 -67 -68 -67c-38 0 -68 29 -68 67z" />
    <glyph glyph-name="fi" unicode="fi" horiz-adv-x="523" 
d="M102 0v413h-77v37l77 9c0 130 19 198 48 237c31 42 68 49 102 49c66 0 121 -27 157 -50l-34 -60c-60 37 -98 58 -136 58c-58 0 -67 -50 -67 -173v-60h108v-47h-108v-413h-70zM447 460v-460h-70v460h70z" />
    <glyph glyph-name="fl" unicode="fl" horiz-adv-x="537" 
d="M102 0v413h-77v37l77 9c0 143 33 205 61 237c33 38 69 49 100 49c26 0 90 -1 155 -26l35 21v-740h-70v665c-37 19 -90 28 -139 28c-43 0 -72 -43 -72 -173v-60h108v-47h-108v-413h-70z" />
    <glyph glyph-name=".notdef" horiz-adv-x="266" 
d="M65 243c0 36 30 69 68 69c35 0 68 -33 68 -69c0 -38 -33 -67 -68 -67c-38 0 -68 29 -68 67z" />
    <glyph glyph-name="A" unicode="A" 
d="M360 660l290 -660h-85l-97 222h-295l-88 -222h-80l264 660h91zM313 576l-112 -284h236z" />
    <glyph glyph-name="AE" unicode="&#xc6;" horiz-adv-x="759" 
d="M719 70v-70h-332v222h-195l-117 -222h-82l352 660h354v-70h-237v-205h170v-70h-170v-245h257zM229 292h158v296z" />
    <glyph glyph-name="Aacute" unicode="&#xc1;" 
d="M360 660l290 -660h-85l-97 222h-295l-88 -222h-80l264 660h91zM313 576l-112 -284h236zM227 718l-7 3l-6 20l3 7l180 100c23 -1 35 -15 35 -34c0 -6 0 -12 -3 -19z" />
    <glyph glyph-name="Acircumflex" unicode="&#xc2;" 
d="M360 660l290 -660h-85l-97 222h-295l-88 -222h-80l264 660h91zM313 576l-112 -284h236zM322 842h8l110 -99l3 -7l-6 -20l-7 -3l-104 62l-104 -62l-7 3l-6 20l3 7z" />
    <glyph glyph-name="Adieresis" unicode="&#xc4;" 
d="M360 660l290 -660h-85l-97 222h-295l-88 -222h-80l264 660h91zM313 576l-112 -284h236zM204 794c0 24 18 45 41 45c22 0 42 -21 42 -45c0 -25 -20 -44 -42 -44c-23 0 -41 19 -41 44zM361 794c0 24 18 45 41 45c21 0 41 -21 41 -45c0 -25 -20 -44 -41 -44
c-23 0 -41 19 -41 44z" />
    <glyph glyph-name="Agrave" unicode="&#xc0;" 
d="M360 660l290 -660h-85l-97 222h-295l-88 -222h-80l264 660h91zM313 576l-112 -284h236zM427 721l-8 -3l-201 77c-3 7 -4 13 -4 19c0 19 12 33 35 34l181 -100l2 -7z" />
    <glyph glyph-name="Aring" unicode="&#xc5;" 
d="M314 782c52 0 86 -38 86 -79c0 -25 -14 -46 -34 -58l284 -645h-85l-97 222h-295l-88 -222h-80l258 645c-22 12 -36 35 -36 60c0 41 35 77 87 77zM313 576l-112 -284h236zM315 654c26 0 45 24 45 49c0 27 -20 49 -47 49c-29 0 -47 -20 -47 -46c0 -27 22 -52 49 -52z" />
    <glyph glyph-name="Atilde" unicode="&#xc3;" 
d="M360 660l290 -660h-85l-97 222h-295l-88 -222h-80l264 660h91zM313 576l-112 -284h236zM479 832c-8 -36 -33 -77 -88 -77c-53 0 -113 14 -155 14c-33 0 -42 -9 -55 -25l-13 8c12 36 34 76 91 76c67 0 93 -14 143 -14c22 0 47 2 65 26z" />
    <glyph glyph-name="B" unicode="B" horiz-adv-x="559" 
d="M99 0v660c43 3 106 5 154 5c118 0 197 -59 197 -172c0 -53 -22 -98 -68 -128c80 -27 128 -85 128 -172c0 -111 -81 -205 -246 -205c-65 0 -122 6 -165 12zM261 54c107 0 166 51 166 147c0 76 -47 124 -168 124c-29 0 -59 -1 -85 -2v-266c26 -2 56 -3 87 -3zM235 382
c83 0 132 46 132 119c0 58 -28 98 -108 98c-29 0 -59 -1 -85 -2v-214c19 -1 40 -1 61 -1z" />
    <glyph glyph-name="C" unicode="C" 
d="M588 622l-21 -72c-42 28 -107 49 -186 49c-178 0 -241 -108 -241 -268c0 -182 81 -277 239 -277c84 0 158 27 201 62l20 -67c-53 -32 -130 -61 -224 -61c-218 0 -319 155 -319 335c0 189 112 342 330 342c72 0 149 -17 201 -43z" />
    <glyph glyph-name="Ccedilla" unicode="&#xc7;" 
d="M275 -184l-1 6l13 23h7c16 -6 43 -12 69 -12c29 0 53 9 53 40c0 36 -23 46 -51 46c-16 0 -34 -3 -49 -7l-8 11l43 66c-201 11 -294 161 -294 334c0 189 112 342 330 342c72 0 149 -17 201 -43l-21 -72c-42 28 -107 49 -186 49c-178 0 -241 -108 -241 -268
c0 -182 81 -277 239 -277c84 0 158 27 201 62l20 -67c-51 -31 -124 -59 -213 -61l-24 -39c12 3 24 4 33 4c47 0 79 -31 79 -72c0 -44 -46 -84 -109 -84c-32 0 -66 8 -91 19z" />
    <glyph glyph-name="D" unicode="D" horiz-adv-x="704" 
d="M99 0v660h5c63 2 143 5 213 5c94 0 175 -28 229 -75c70 -63 101 -160 101 -267c0 -180 -101 -335 -319 -335c-94 0 -169 6 -229 12zM323 599c-53 0 -107 -1 -149 -3v-536c42 -4 94 -6 151 -6c158 0 239 95 239 277c0 160 -63 268 -241 268z" />
    <glyph glyph-name="E" unicode="E" horiz-adv-x="522" 
d="M481 70v-70h-382v660h362v-70h-287v-205h220v-70h-220v-245h307z" />
    <glyph glyph-name="Eacute" unicode="&#xc9;" horiz-adv-x="522" 
d="M481 70v-70h-382v660h362v-70h-287v-205h220v-70h-220v-245h307zM191 718l-7 3l-6 20l3 7l181 100c22 -1 35 -15 35 -34c0 -6 -1 -12 -4 -19z" />
    <glyph glyph-name="Ecircumflex" unicode="&#xca;" horiz-adv-x="522" 
d="M481 70v-70h-382v660h362v-70h-287v-205h220v-70h-220v-245h307zM283 842h8l110 -99l3 -7l-6 -20l-7 -3l-104 62l-104 -62l-7 3l-6 20l3 7z" />
    <glyph glyph-name="Edieresis" unicode="&#xcb;" horiz-adv-x="522" 
d="M481 70v-70h-382v660h362v-70h-287v-205h220v-70h-220v-245h307zM315 794c0 24 18 45 41 45c22 0 42 -21 42 -45c0 -25 -20 -44 -42 -44c-23 0 -41 19 -41 44zM158 794c0 24 18 45 41 45c22 0 42 -21 42 -45c0 -25 -20 -44 -42 -44c-23 0 -41 19 -41 44z" />
    <glyph glyph-name="Egrave" unicode="&#xc8;" horiz-adv-x="522" 
d="M481 70v-70h-382v660h362v-70h-287v-205h220v-70h-220v-245h307zM381 721l-8 -3l-201 77c-3 7 -4 13 -4 19c0 19 12 33 35 34l181 -100l3 -7z" />
    <glyph glyph-name="Eth" unicode="&#xd0;" horiz-adv-x="706" 
d="M101 326h-87v44h87v290h5c63 2 143 5 213 5c94 0 175 -28 229 -75c70 -63 101 -160 101 -267c0 -180 -101 -335 -319 -335c-94 0 -169 6 -229 12v326zM176 370h175v-44h-175v-266c42 -4 94 -6 151 -6c158 0 239 95 239 277c0 160 -63 268 -241 268c-53 0 -107 -1 -149 -3
v-226z" />
    <glyph glyph-name="Euro" unicode="&#x20ac;" horiz-adv-x="623" 
d="M42 412h84c26 146 117 253 268 253c60 0 128 -17 171 -43l-21 -72c-36 28 -89 49 -156 49c-115 0 -167 -73 -182 -187h255v-52h-260v-53h260v-52h-256c17 -133 79 -201 181 -201c72 0 134 27 171 62l20 -67c-47 -32 -112 -61 -194 -61c-157 0 -242 117 -261 267h-80v52
h76c0 14 0 39 1 53h-77v52z" />
    <glyph glyph-name="F" unicode="F" horiz-adv-x="480" 
d="M383 385v-70h-209v-315h-75v660h357v-70h-282v-205h209z" />
    <glyph glyph-name="G" unicode="G" horiz-adv-x="672" 
d="M607 272v-217c-59 -40 -137 -67 -231 -67c-218 0 -319 155 -319 335c0 189 112 342 330 342c77 0 154 -17 211 -43l-21 -72c-42 28 -112 49 -196 49c-178 0 -241 -108 -241 -268c0 -182 81 -277 239 -277c58 0 111 13 153 32v186h75z" />
    <glyph glyph-name="H" unicode="H" horiz-adv-x="704" 
d="M174 660v-285h356v285h75v-660h-75v305h-356v-305h-75v660h75z" />
    <glyph glyph-name="I" unicode="I" horiz-adv-x="273" 
d="M174 660v-660h-75v660h75z" />
    <glyph glyph-name="Iacute" unicode="&#xcd;" horiz-adv-x="273" 
d="M49 718l-8 3l-6 20l3 7l181 100c23 -1 35 -15 35 -34c0 -6 -1 -12 -4 -19zM174 660v-660h-75v660h75z" />
    <glyph glyph-name="Icircumflex" unicode="&#xce;" horiz-adv-x="273" 
d="M131 842h7l111 -99l3 -7l-6 -20l-8 -3l-103 62l-104 -62l-8 3l-5 20l3 7zM174 660v-660h-75v660h75z" />
    <glyph glyph-name="Idieresis" unicode="&#xcf;" horiz-adv-x="273" 
d="M19 794c0 24 18 45 41 45c22 0 42 -21 42 -45c0 -25 -20 -44 -42 -44c-23 0 -41 19 -41 44zM176 794c0 24 18 45 41 45c22 0 42 -21 42 -45c0 -25 -20 -44 -42 -44c-23 0 -41 19 -41 44zM174 660v-660h-75v660h75z" />
    <glyph glyph-name="Igrave" unicode="&#xcc;" horiz-adv-x="273" 
d="M228 721l-7 -3l-202 77c-3 7 -4 13 -4 19c0 19 13 33 35 34l181 -100l3 -7zM174 660v-660h-75v660h75z" />
    <glyph glyph-name="J" unicode="J" horiz-adv-x="272" 
d="M174 660v-559c0 -141 -55 -257 -174 -257l-14 55c105 0 113 112 113 203v558h75z" />
    <glyph glyph-name="K" unicode="K" horiz-adv-x="598" 
d="M174 660v-312c37 25 64 48 102 85c65 64 136 147 191 227h86c-63 -93 -157 -200 -226 -269c-15 -15 -27 -26 -39 -37l306 -354h-93l-268 306l-59 -45v-261h-75v660h75z" />
    <glyph glyph-name="L" unicode="L" horiz-adv-x="486" 
d="M469 70v-70h-370v660h75v-590h295z" />
    <glyph glyph-name="M" unicode="M" horiz-adv-x="843" 
d="M200 660l224 -566l224 566h96v-660h-75v499l-202 -499h-90l-203 500v-500h-75v660h101z" />
    <glyph glyph-name="N" unicode="N" horiz-adv-x="704" 
d="M514 0l-340 540v-540h-75v660h91l340 -541v541h75v-660h-91z" />
    <glyph glyph-name="Ntilde" unicode="&#xd1;" horiz-adv-x="704" 
d="M184 660l346 -543v543h75v-660h-85l-346 542v-542h-75v660h85zM494 832c-8 -36 -33 -77 -88 -77c-53 0 -113 14 -155 14c-33 0 -42 -9 -55 -25l-13 8c12 36 34 76 91 76c67 0 93 -14 143 -14c22 0 47 2 65 26z" />
    <glyph glyph-name="O" unicode="O" horiz-adv-x="756" 
d="M378 665c208 0 322 -156 322 -336c0 -176 -110 -341 -329 -341c-212 0 -315 155 -315 334c0 190 116 343 322 343zM373 54c174 0 245 120 245 272c0 162 -75 273 -243 273c-171 0 -236 -110 -236 -267c0 -183 83 -278 234 -278z" />
    <glyph glyph-name="OE" unicode="&#x152;" horiz-adv-x="854" 
d="M813 70v-70h-346c-29 -8 -61 -12 -96 -12c-212 0 -315 155 -315 334c0 190 116 343 322 343c25 0 49 -2 72 -5h343v-70h-268v-205h201v-70h-201v-245h288zM373 54c28 0 54 3 77 9v527c-23 6 -48 9 -75 9c-171 0 -236 -110 -236 -267c0 -183 83 -278 234 -278z" />
    <glyph glyph-name="Oacute" unicode="&#xd3;" horiz-adv-x="756" 
d="M320 718l-8 3l-5 20l3 7l180 100c23 -1 35 -15 35 -34c0 -6 -1 -12 -3 -19zM378 665c208 0 322 -156 322 -336c0 -176 -110 -341 -329 -341c-212 0 -315 155 -315 334c0 190 116 343 322 343zM373 54c174 0 245 120 245 272c0 162 -75 273 -243 273
c-171 0 -236 -110 -236 -267c0 -183 83 -278 234 -278z" />
    <glyph glyph-name="Ocircumflex" unicode="&#xd4;" horiz-adv-x="756" 
d="M384 842h8l110 -99l3 -7l-6 -20l-7 -3l-104 62l-104 -62l-7 3l-6 20l3 7zM378 665c208 0 322 -156 322 -336c0 -176 -110 -341 -329 -341c-212 0 -315 155 -315 334c0 190 116 343 322 343zM373 54c174 0 245 120 245 272c0 162 -75 273 -243 273
c-171 0 -236 -110 -236 -267c0 -183 83 -278 234 -278z" />
    <glyph glyph-name="Odieresis" unicode="&#xd6;" horiz-adv-x="756" 
d="M259 794c0 24 18 45 41 45c22 0 42 -21 42 -45c0 -25 -20 -44 -42 -44c-23 0 -41 19 -41 44zM416 794c0 24 18 45 41 45c22 0 42 -21 42 -45c0 -25 -20 -44 -42 -44c-23 0 -41 19 -41 44zM378 665c208 0 322 -156 322 -336c0 -176 -110 -341 -329 -341
c-212 0 -315 155 -315 334c0 190 116 343 322 343zM373 54c174 0 245 120 245 272c0 162 -75 273 -243 273c-171 0 -236 -110 -236 -267c0 -183 83 -278 234 -278z" />
    <glyph glyph-name="Ograve" unicode="&#xd2;" horiz-adv-x="756" 
d="M453 721l-8 -3l-201 77c-3 7 -4 13 -4 19c0 19 12 33 35 34l180 -100l3 -7zM378 665c208 0 322 -156 322 -336c0 -176 -110 -341 -329 -341c-212 0 -315 155 -315 334c0 190 116 343 322 343zM373 54c174 0 245 120 245 272c0 162 -75 273 -243 273
c-171 0 -236 -110 -236 -267c0 -183 83 -278 234 -278z" />
    <glyph glyph-name="Oslash" unicode="&#xd8;" horiz-adv-x="756" 
d="M58 8l72 85c-49 61 -73 142 -73 229c0 190 116 343 322 343c74 0 137 -20 186 -54l65 76l51 -39l-67 -80c57 -62 87 -147 87 -239c0 -176 -110 -341 -329 -341c-81 0 -146 22 -196 60l-70 -83zM374 54c174 0 245 120 245 272c0 76 -17 140 -51 188l-346 -412
c38 -32 89 -48 152 -48zM140 332c0 -75 13 -134 40 -179l342 406c-37 26 -86 40 -146 40c-171 0 -236 -110 -236 -267z" />
    <glyph glyph-name="Otilde" unicode="&#xd5;" horiz-adv-x="756" 
d="M535 832c-8 -36 -33 -77 -88 -77c-53 0 -113 14 -155 14c-33 0 -42 -9 -55 -25l-13 8c12 36 34 76 91 76c67 0 93 -14 143 -14c22 0 47 2 65 26zM378 665c208 0 322 -156 322 -336c0 -176 -110 -341 -329 -341c-212 0 -315 155 -315 334c0 190 116 343 322 343zM373 54
c174 0 245 120 245 272c0 162 -75 273 -243 273c-171 0 -236 -110 -236 -267c0 -183 83 -278 234 -278z" />
    <glyph glyph-name="P" unicode="P" horiz-adv-x="529" 
d="M99 0v660h4c43 2 98 5 145 5c144 0 240 -74 240 -212c0 -111 -73 -205 -229 -205c-32 0 -60 1 -85 3v-251h-75zM254 599c-28 0 -56 -1 -80 -2v-280c24 -2 52 -3 82 -3c98 0 149 51 149 147c0 82 -39 138 -151 138z" />
    <glyph glyph-name="Q" unicode="Q" horiz-adv-x="759" 
d="M380 665c208 0 322 -156 322 -336c0 -171 -104 -330 -309 -340c93 -11 178 -76 278 -76c27 0 54 6 85 19l-19 -64c-25 -13 -51 -16 -74 -16c-113 0 -212 89 -301 89c-32 0 -82 -10 -123 -41l-14 47c35 26 78 39 117 42c-191 14 -284 163 -284 333c0 190 116 343 322 343z
M377 54c172 0 243 120 243 275c0 159 -75 270 -245 270c-169 0 -234 -110 -234 -270c0 -180 83 -275 236 -275z" />
    <glyph glyph-name="R" unicode="R" horiz-adv-x="595" 
d="M99 0v660c47 2 102 5 149 5c144 0 240 -67 240 -190c0 -85 -47 -158 -147 -184l253 -291h-93l-247 282c-30 0 -56 1 -80 3v-285h-75zM254 599c-28 0 -56 -1 -80 -2v-247c24 -2 52 -2 82 -2c98 0 149 47 149 135c0 69 -39 116 -151 116z" />
    <glyph glyph-name="S" unicode="S" horiz-adv-x="551" 
d="M138 501c0 -66 50 -83 167 -122c100 -33 200 -74 200 -203c0 -137 -115 -188 -238 -188c-86 0 -164 25 -218 55l21 73c51 -35 98 -62 191 -62c121 0 167 46 167 108c0 90 -95 122 -174 148c-115 38 -189 81 -189 188c0 119 93 167 213 167c72 0 143 -17 189 -38l-21 -77
c-43 37 -119 49 -172 49c-84 0 -136 -30 -136 -98z" />
    <glyph glyph-name="Scaron" unicode="&#x160;" horiz-adv-x="551" 
d="M281 713h-7l-111 99l-2 7l5 20l8 3l103 -62l104 62l8 -3l5 -20l-2 -7zM138 501c0 -66 50 -83 167 -122c100 -33 200 -74 200 -203c0 -137 -115 -188 -238 -188c-86 0 -164 25 -218 55l21 73c51 -35 98 -62 191 -62c121 0 167 46 167 108c0 90 -95 122 -174 148
c-115 38 -189 81 -189 188c0 119 93 167 213 167c72 0 143 -17 189 -38l-21 -77c-43 37 -119 49 -172 49c-84 0 -136 -30 -136 -98z" />
    <glyph glyph-name="T" unicode="T" horiz-adv-x="533" 
d="M515 660v-70h-211v-590h-75v590h-211v70h497z" />
    <glyph glyph-name="Thorn" unicode="&#xde;" horiz-adv-x="519" 
d="M169 660v-127c26 1 56 2 73 2c144 0 235 -71 235 -200c0 -108 -64 -197 -230 -197c-18 0 -52 1 -78 3v-141h-70v660h70zM244 469c-17 0 -50 -1 -75 -2v-259c25 -3 58 -4 74 -4c103 0 151 44 151 137c0 80 -36 128 -150 128z" />
    <glyph glyph-name="U" unicode="U" horiz-adv-x="688" 
d="M167 660v-404c0 -144 67 -202 179 -202s180 58 180 202v404h70v-438c0 -131 -80 -233 -250 -233c-187 0 -254 102 -254 233v438h75z" />
    <glyph glyph-name="Uacute" unicode="&#xda;" horiz-adv-x="688" 
d="M263 718l-8 3l-6 20l3 7l181 100c23 -1 35 -15 35 -34c0 -6 -1 -12 -4 -19zM167 660v-404c0 -144 67 -202 179 -202s180 58 180 202v404h70v-438c0 -131 -80 -233 -250 -233c-187 0 -254 102 -254 233v438h75z" />
    <glyph glyph-name="Ucircumflex" unicode="&#xdb;" horiz-adv-x="688" 
d="M337 842h7l111 -99l2 -7l-5 -20l-8 -3l-103 62l-104 -62l-8 3l-5 20l2 7zM167 660v-404c0 -144 67 -202 179 -202s180 58 180 202v404h70v-438c0 -131 -80 -233 -250 -233c-187 0 -254 102 -254 233v438h75z" />
    <glyph glyph-name="Udieresis" unicode="&#xdc;" horiz-adv-x="688" 
d="M236 794c0 24 18 45 41 45c22 0 42 -21 42 -45c0 -25 -20 -44 -42 -44c-23 0 -41 19 -41 44zM393 794c0 24 18 45 41 45c22 0 42 -21 42 -45c0 -25 -20 -44 -42 -44c-23 0 -41 19 -41 44zM167 660v-404c0 -144 67 -202 179 -202s180 58 180 202v404h70v-438
c0 -131 -80 -233 -250 -233c-187 0 -254 102 -254 233v438h75z" />
    <glyph glyph-name="Ugrave" unicode="&#xd9;" horiz-adv-x="688" 
d="M434 721l-8 -3l-201 77c-3 7 -4 13 -4 19c0 19 12 33 35 34l181 -100l2 -7zM167 660v-404c0 -144 67 -202 179 -202s180 58 180 202v404h70v-438c0 -131 -80 -233 -250 -233c-187 0 -254 102 -254 233v438h75z" />
    <glyph glyph-name="V" unicode="V" horiz-adv-x="644" 
d="M281 0l-288 660h85l251 -576l229 576h80l-262 -660h-95z" />
    <glyph glyph-name="W" unicode="W" horiz-adv-x="1081" 
d="M740 0l-200 546l-186 -546h-95l-260 660h85l222 -565l193 565h85l205 -563l201 563h80l-235 -660h-95z" />
    <glyph glyph-name="X" unicode="X" horiz-adv-x="646" 
d="M541 0l-221 285l-219 -285h-86l262 341l-247 319h89l206 -267l206 267h86l-249 -323l262 -337h-89z" />
    <glyph glyph-name="Y" unicode="Y" horiz-adv-x="566" 
d="M246 267l-257 393h89l209 -317l202 317h87l-255 -389v-271h-75v267z" />
    <glyph glyph-name="Yacute" unicode="&#xdd;" horiz-adv-x="566" 
d="M228 718l-8 3l-5 20l3 7l180 100c23 -1 35 -15 35 -34c0 -6 -1 -12 -3 -19zM246 267l-257 393h89l209 -317l202 317h87l-255 -389v-271h-75v267z" />
    <glyph glyph-name="Ydieresis" unicode="&#x178;" horiz-adv-x="566" 
d="M167 794c0 24 18 45 41 45c21 0 41 -21 41 -45c0 -25 -20 -44 -41 -44c-23 0 -41 19 -41 44zM324 794c0 24 18 45 40 45s42 -21 42 -45c0 -25 -20 -44 -42 -44s-40 19 -40 44zM246 267l-257 393h89l209 -317l202 317h87l-255 -389v-271h-75v267z" />
    <glyph glyph-name="Z" unicode="Z" horiz-adv-x="554" 
d="M511 70v-70h-468v70l368 520h-353v70h438v-70l-368 -520h383z" />
    <glyph glyph-name="Zcaron" unicode="&#x17d;" horiz-adv-x="554" 
d="M278 713h-8l-110 99l-3 7l6 20l8 3l103 -62l104 62l7 -3l6 -20l-3 -7zM511 70v-70h-468v70l368 520h-353v70h438v-70l-368 -520h383z" />
    <glyph glyph-name="a" unicode="a" horiz-adv-x="498" 
d="M425 0h-55l-8 82h-4c-32 -50 -110 -94 -186 -94c-87 0 -132 58 -132 135c0 153 177 169 270 169h45v12c0 50 -15 74 -41 92c-23 15 -46 20 -88 20c-56 0 -96 -16 -136 -40l-16 60c45 26 98 39 160 39c49 0 95 -8 128 -29c38 -24 63 -68 63 -133v-313zM193 47
c54 0 124 36 162 101v93h-9c-108 0 -232 -10 -232 -114c0 -52 31 -80 79 -80z" />
    <glyph glyph-name="aacute" unicode="&#xe1;" horiz-adv-x="498" 
d="M192 549l-7 3l-6 20l3 7l180 101c23 -1 36 -16 36 -35c0 -5 -1 -12 -4 -19zM425 0h-55l-8 82h-4c-32 -50 -110 -94 -186 -94c-87 0 -132 58 -132 135c0 153 177 169 270 169h45v12c0 50 -15 74 -41 92c-23 15 -46 20 -88 20c-56 0 -96 -16 -136 -40l-16 60
c45 26 98 39 160 39c49 0 95 -8 128 -29c38 -24 63 -68 63 -133v-313zM193 47c54 0 124 36 162 101v93h-9c-108 0 -232 -10 -232 -114c0 -52 31 -80 79 -80z" />
    <glyph glyph-name="acircumflex" unicode="&#xe2;" horiz-adv-x="498" 
d="M236 673h8l110 -99l3 -7l-6 -19l-7 -3l-104 61l-103 -61l-8 3l-6 19l3 7zM425 0h-55l-8 82h-4c-32 -50 -110 -94 -186 -94c-87 0 -132 58 -132 135c0 153 177 169 270 169h45v12c0 50 -15 74 -41 92c-23 15 -46 20 -88 20c-56 0 -96 -16 -136 -40l-16 60
c45 26 98 39 160 39c49 0 95 -8 128 -29c38 -24 63 -68 63 -133v-313zM193 47c54 0 124 36 162 101v93h-9c-108 0 -232 -10 -232 -114c0 -52 31 -80 79 -80z" />
    <glyph glyph-name="acute" unicode="&#xb4;" horiz-adv-x="219" 
d="M13 549l-7 3l-6 20l3 7l180 101c23 -1 36 -16 36 -35c0 -5 -1 -12 -4 -19z" />
    <glyph glyph-name="adieresis" unicode="&#xe4;" horiz-adv-x="498" 
d="M130 626c0 24 18 45 41 45c21 0 41 -21 41 -45c0 -25 -20 -44 -41 -44c-23 0 -41 19 -41 44zM287 626c0 24 18 45 40 45s42 -21 42 -45c0 -25 -20 -44 -42 -44s-40 19 -40 44zM425 0h-55l-8 82h-4c-32 -50 -110 -94 -186 -94c-87 0 -132 58 -132 135
c0 153 177 169 270 169h45v12c0 50 -15 74 -41 92c-23 15 -46 20 -88 20c-56 0 -96 -16 -136 -40l-16 60c45 26 98 39 160 39c49 0 95 -8 128 -29c38 -24 63 -68 63 -133v-313zM193 47c54 0 124 36 162 101v93h-9c-108 0 -232 -10 -232 -114c0 -52 31 -80 79 -80z" />
    <glyph glyph-name="ae" unicode="&#xe6;" horiz-adv-x="819" 
d="M403 396h4c38 45 104 79 180 79c117 0 184 -62 184 -170c0 -22 -3 -49 -9 -60h-337v-18c2 -99 55 -186 163 -186c64 0 124 28 161 54l13 -53c-35 -22 -102 -54 -182 -54c-89 0 -154 40 -192 100h-4c-53 -73 -136 -100 -212 -100c-87 0 -132 58 -132 135
c0 153 177 169 270 169h45v12c0 50 -15 74 -41 92c-23 15 -46 20 -88 20c-56 0 -96 -16 -136 -40l-16 60c45 26 98 39 160 39c49 0 95 -8 128 -29c16 -11 34 -31 41 -50zM193 47c54 0 124 36 162 101v93h-9c-108 0 -232 -10 -232 -114c0 -52 31 -80 79 -80zM584 419
c-87 0 -135 -52 -152 -121h273c1 6 1 12 1 18c0 68 -58 103 -122 103z" />
    <glyph glyph-name="agrave" unicode="&#xe0;" horiz-adv-x="498" 
d="M318 552l-8 -3l-202 77c-2 7 -3 14 -3 19c0 19 12 34 35 35l180 -101l3 -7zM425 0h-55l-8 82h-4c-32 -50 -110 -94 -186 -94c-87 0 -132 58 -132 135c0 153 177 169 270 169h45v12c0 50 -15 74 -41 92c-23 15 -46 20 -88 20c-56 0 -96 -16 -136 -40l-16 60
c45 26 98 39 160 39c49 0 95 -8 128 -29c38 -24 63 -68 63 -133v-313zM193 47c54 0 124 36 162 101v93h-9c-108 0 -232 -10 -232 -114c0 -52 31 -80 79 -80z" />
    <glyph glyph-name="ampersand" unicode="&#x26;" horiz-adv-x="701" 
d="M418 390l251 37v-62l-134 -12c20 -37 31 -77 31 -118c0 -43 -12 -85 -34 -122l110 -113h-84l-64 65c-47 -47 -115 -77 -200 -77c-153 0 -231 91 -231 188c0 73 45 156 134 194c-39 45 -61 88 -61 146c0 98 67 149 148 149c45 0 94 -16 139 -44l-20 -71
c-30 29 -77 50 -117 50c-44 0 -80 -26 -80 -89c0 -44 18 -79 51 -113l228 -236c10 24 16 50 16 77c0 40 -12 75 -33 108l-50 -4v47zM303 54c63 0 112 22 146 57l-208 213c-62 -21 -102 -74 -102 -139c0 -84 69 -131 164 -131z" />
    <glyph glyph-name="aring" unicode="&#xe5;" horiz-adv-x="498" 
d="M254 683c52 0 83 -38 83 -75c0 -35 -29 -70 -82 -70c-56 0 -83 38 -83 72c0 37 31 73 82 73zM255 562c27 0 44 24 44 46c0 24 -18 51 -46 51s-44 -25 -44 -48c0 -24 19 -49 46 -49zM425 0h-55l-8 82h-4c-32 -50 -110 -94 -186 -94c-87 0 -132 58 -132 135
c0 153 177 169 270 169h45v12c0 50 -15 74 -41 92c-23 15 -46 20 -88 20c-56 0 -96 -16 -136 -40l-16 60c45 26 98 39 160 39c49 0 95 -8 128 -29c38 -24 63 -68 63 -133v-313zM193 47c54 0 124 36 162 101v93h-9c-108 0 -232 -10 -232 -114c0 -52 31 -80 79 -80z" />
    <glyph glyph-name="asciicircum" unicode="^" horiz-adv-x="348" 
d="M170 673h8l110 -99l3 -7l-6 -19l-7 -3l-104 61l-104 -61l-7 3l-6 19l3 7z" />
    <glyph glyph-name="asciitilde" unicode="~" horiz-adv-x="496" 
d="M422 288c0 -9 -25 -77 -88 -77c-28 0 -149 9 -191 9c-33 0 -42 -9 -55 -25l-13 7c0 20 34 77 91 77c34 0 121 -9 179 -9c22 0 48 2 65 26z" />
    <glyph glyph-name="asterisk" unicode="*" horiz-adv-x="439" 
d="M253 702l-16 -134l108 81l33 -58l-123 -54l123 -53l-32 -57l-109 79l15 -132h-65l14 132l-108 -79l-32 57l123 53l-123 54l33 58l107 -81l-14 134h66z" />
    <glyph glyph-name="at" unicode="@" horiz-adv-x="723" 
d="M417 229l24 121c-4 4 -14 6 -25 6c-88 0 -124 -108 -124 -176c0 -44 14 -64 32 -64c34 0 82 63 93 113zM578 27v-50c-26 -25 -119 -78 -228 -78c-159 0 -293 110 -293 281c0 152 107 368 352 368c188 0 272 -128 272 -247c0 -118 -82 -227 -204 -227c-65 0 -73 31 -73 73
c-22 -45 -60 -74 -94 -74c-40 0 -84 41 -84 120c0 119 101 196 191 196c32 0 76 -10 98 -33l-37 -178c-2 -15 -4 -26 -4 -35c0 -19 7 -28 29 -28c70 0 117 91 117 182c0 98 -61 204 -212 204c-189 0 -288 -167 -288 -321c0 -165 113 -233 240 -233c110 0 188 53 218 80z" />
    <glyph glyph-name="atilde" unicode="&#xe3;" horiz-adv-x="498" 
d="M406 668c0 -8 -25 -77 -88 -77c-28 0 -119 9 -161 9c-33 0 -42 -9 -55 -25l-13 8c0 20 34 76 91 76c34 0 91 -9 149 -9c22 0 47 2 65 26zM425 0h-55l-8 82h-4c-32 -50 -110 -94 -186 -94c-87 0 -132 58 -132 135c0 153 177 169 270 169h45v12c0 50 -15 74 -41 92
c-23 15 -46 20 -88 20c-56 0 -96 -16 -136 -40l-16 60c45 26 98 39 160 39c49 0 95 -8 128 -29c38 -24 63 -68 63 -133v-313zM193 47c54 0 124 36 162 101v93h-9c-108 0 -232 -10 -232 -114c0 -52 31 -80 79 -80z" />
    <glyph glyph-name="b" unicode="b" horiz-adv-x="575" 
d="M325 -12c-85 0 -148 45 -180 94h-4l-8 -82h-55v740h70v-366c17 57 80 101 166 101c142 0 213 -114 213 -246c0 -127 -66 -241 -202 -241zM317 47c102 0 136 93 136 179c0 112 -57 190 -149 190c-70 0 -132 -45 -156 -121v-147c38 -64 105 -101 169 -101z" />
    <glyph glyph-name="backslash" unicode="\" horiz-adv-x="422" 
d="M313 -57l-278 759h73l278 -759h-73z" />
    <glyph glyph-name="bar" unicode="|" horiz-adv-x="240" 
d="M151 768v-882h-62v882h62z" />
    <glyph glyph-name="braceleft" unicode="{" horiz-adv-x="285" 
d="M240 760l2 -21c-59 -6 -65 -50 -65 -102c0 -25 2 -108 2 -143c0 -83 -20 -150 -94 -167c74 -17 94 -84 94 -167c0 -35 -2 -118 -2 -143c0 -52 6 -96 65 -102l-2 -21c-115 0 -134 58 -134 142c0 29 2 110 2 148c0 49 -1 125 -72 128v30c72 3 72 84 72 131
c0 40 -2 117 -2 145c0 84 19 142 134 142z" />
    <glyph glyph-name="braceright" unicode="}" horiz-adv-x="285" 
d="M43 739l2 21c115 0 134 -58 134 -142c0 -28 -2 -105 -2 -145c0 -47 0 -128 72 -131v-30c-71 -3 -72 -79 -72 -128c0 -38 2 -119 2 -148c0 -84 -19 -142 -134 -142l-2 21c59 6 65 50 65 102c0 25 -2 108 -2 143c0 83 20 150 94 167c-74 17 -94 84 -94 167
c0 35 2 118 2 143c0 52 -6 96 -65 102z" />
    <glyph glyph-name="bracketleft" unicode="[" horiz-adv-x="286" 
d="M250 -53v-42h-160v844h160v-42h-95v-760h95z" />
    <glyph glyph-name="bracketright" unicode="]" horiz-adv-x="286" 
d="M36 707v42h160v-844h-160v42h95v760h-95z" />
    <glyph glyph-name="brokenbar" unicode="&#xa6;" horiz-adv-x="244" 
d="M91 274h62v-388h-62v388zM153 380h-62v388h62v-388z" />
    <glyph glyph-name="bullet" unicode="&#x2022;" horiz-adv-x="328" 
d="M96 243c0 36 30 69 68 69c35 0 68 -33 68 -69c0 -38 -33 -67 -68 -67c-38 0 -68 29 -68 67z" />
    <glyph glyph-name="c" unicode="c" horiz-adv-x="500" 
d="M454 435l-17 -59c-30 23 -95 44 -152 44c-116 0 -163 -86 -163 -180c0 -105 59 -197 170 -197c53 0 116 25 153 60l14 -65c-37 -24 -107 -50 -180 -50c-155 0 -231 114 -231 246c0 128 71 241 238 241c63 0 131 -16 168 -40z" />
    <glyph glyph-name="caron" unicode="&#x2c7;" horiz-adv-x="234" 
d="M121 545h-8l-110 99l-3 6l6 20l7 3l104 -62l104 62l7 -3l6 -20l-3 -6z" />
    <glyph glyph-name="ccedilla" unicode="&#xe7;" horiz-adv-x="500" 
d="M455 435l-17 -59c-30 23 -95 44 -152 44c-116 0 -163 -86 -163 -180c0 -105 59 -197 170 -197c53 0 114 22 151 57l16 -62c-35 -23 -100 -47 -169 -50l-24 -39c12 3 24 4 33 4c47 0 79 -31 79 -72c0 -44 -46 -84 -109 -84c-32 0 -66 8 -91 19l-1 6l13 23h7
c16 -6 43 -12 69 -12c29 0 53 9 53 40c0 36 -23 46 -51 46c-16 0 -34 -3 -49 -7l-8 11l43 66c-138 11 -206 120 -206 245c0 128 71 241 238 241c63 0 131 -16 168 -40z" />
    <glyph glyph-name="cedilla" unicode="&#xb8;" horiz-adv-x="202" 
d="M1 -184l-1 6l13 23h7c16 -6 44 -12 69 -12c29 0 54 9 54 40c0 36 -24 46 -52 46c-16 0 -34 -3 -48 -7l-9 11l51 77h34l-30 -51c13 3 24 4 34 4c46 0 79 -31 79 -72c0 -44 -47 -84 -110 -84c-32 0 -65 8 -91 19z" />
    <glyph glyph-name="cent" unicode="&#xa2;" horiz-adv-x="506" 
d="M317 577v-134c53 -4 105 -18 136 -38l-17 -59c-25 18 -72 35 -119 41v-343c46 7 96 29 127 59l14 -65c-31 -20 -83 -41 -141 -48v-127h-60v126c-141 10 -210 112 -210 230c0 113 63 213 210 225v133h60zM121 225c0 -87 47 -164 136 -179v342c-97 -12 -136 -84 -136 -163z
" />
    <glyph glyph-name="circumflex" unicode="&#x2c6;" horiz-adv-x="234" 
d="M113 673h8l110 -99l3 -7l-6 -19l-7 -3l-104 61l-104 -61l-7 3l-6 19l3 7z" />
    <glyph glyph-name="colon" unicode=":" horiz-adv-x="242" 
d="M74 35c0 25 20 48 46 48c25 0 48 -23 48 -48s-23 -46 -48 -46c-26 0 -46 21 -46 46zM74 408c0 25 20 47 46 47c25 0 48 -22 48 -47c0 -26 -23 -47 -48 -47c-26 0 -46 21 -46 47z" />
    <glyph glyph-name="comma" unicode="," horiz-adv-x="243" 
d="M88 -97l-20 19l39 73h-25v90h79v-105z" />
    <glyph glyph-name="copyright" unicode="&#xa9;" horiz-adv-x="725" 
d="M362 654c168 0 304 -135 304 -300c0 -169 -136 -302 -309 -302c-163 0 -298 137 -298 302s135 300 303 300zM362 613c-144 0 -256 -115 -256 -259c0 -146 112 -261 252 -261c149 0 261 113 261 261c0 144 -113 259 -257 259zM480 493l-12 -51c-21 16 -67 30 -106 30
c-75 0 -102 -51 -102 -112c0 -68 35 -123 106 -123c38 0 82 17 108 42l9 -56c-26 -17 -75 -35 -126 -35c-108 0 -158 76 -158 168c0 90 46 165 163 165c44 0 92 -11 118 -28z" />
    <glyph glyph-name="currency" unicode="&#xa4;" horiz-adv-x="581" 
d="M58 27l78 80c-30 37 -44 77 -44 123c0 43 12 80 45 121l-82 80l30 30l80 -79c42 31 79 44 124 44c46 0 84 -13 123 -44l81 78l30 -29l-79 -80c31 -41 44 -78 44 -123c0 -44 -13 -81 -43 -121l80 -80l-31 -30l-81 79c-38 -29 -78 -45 -122 -45c-43 0 -80 14 -124 45
l-80 -79zM290 378c-81 0 -148 -65 -148 -149c0 -83 66 -149 149 -149c82 0 147 66 147 149c0 82 -65 149 -148 149z" />
    <glyph glyph-name="d" unicode="d" horiz-adv-x="575" 
d="M250 -12c-136 0 -202 114 -202 241c0 132 71 246 213 246c89 0 149 -44 166 -101v366h70v-740h-55l-8 82h-4c-32 -49 -95 -94 -180 -94zM258 47c64 0 132 36 169 101v147c-24 76 -86 121 -156 121c-92 0 -149 -78 -149 -190c0 -86 34 -179 136 -179z" />
    <glyph glyph-name="dagger" unicode="&#x2020;" horiz-adv-x="466" 
d="M278 109h-90l12 228v97h-10l-154 -12v73l154 -12h10l-12 209h90l-12 -209h9l155 12v-73l-155 12h-9v-97z" />
    <glyph glyph-name="daggerdbl" unicode="&#x2021;" horiz-adv-x="508" 
d="M299 -71h-90l11 209h-9l-154 -13v74l154 -13h10v248h-10l-154 -12v73l154 -12h10l-12 209h90l-12 -209h9l155 12v-73l-155 12h-9v-248h9l155 13v-74l-155 13h-9z" />
    <glyph glyph-name="degree" unicode="&#xb0;" horiz-adv-x="358" 
d="M178 658c81 0 123 -54 123 -118c0 -59 -39 -111 -123 -111c-85 0 -121 55 -121 114c0 63 43 115 121 115zM178 467c50 0 73 30 73 73c0 42 -23 77 -74 77c-52 0 -73 -33 -73 -73c0 -43 25 -77 74 -77z" />
    <glyph glyph-name="dieresis" unicode="&#xa8;" horiz-adv-x="220" 
d="M0 631c0 24 18 45 41 45c22 0 42 -21 42 -45c0 -25 -20 -44 -42 -44c-23 0 -41 19 -41 44zM137 631c0 24 18 45 41 45c22 0 42 -21 42 -45c0 -25 -20 -44 -42 -44c-23 0 -41 19 -41 44z" />
    <glyph glyph-name="divide" unicode="&#xf7;" horiz-adv-x="566" 
d="M77 265h414v-52h-414v52zM248 80c0 25 21 47 47 47c24 0 47 -22 47 -47c0 -26 -23 -47 -47 -47c-26 0 -47 21 -47 47zM248 397c0 25 21 48 47 48c24 0 47 -23 47 -48s-23 -46 -47 -46c-26 0 -47 21 -47 46z" />
    <glyph glyph-name="dollar" unicode="$" horiz-adv-x="529" 
d="M300 750v-86c58 -4 113 -19 151 -37l-21 -77c-33 29 -85 43 -130 47v-219c94 -32 189 -74 189 -202c0 -122 -87 -176 -189 -186v-86h-60v85c-78 3 -148 26 -197 54l21 73c48 -33 93 -59 176 -62v259c-111 38 -181 80 -181 185c0 108 77 157 181 165v87h60zM412 162
c0 69 -54 105 -112 129v-234c80 11 112 52 112 105zM132 501c0 -54 33 -75 108 -102v198c-68 -6 -108 -36 -108 -96z" />
    <glyph glyph-name="dotlessi" unicode="&#x131;" horiz-adv-x="226" 
d="M148 460v-460h-70v460h70z" />
    <glyph glyph-name="e" unicode="e" horiz-adv-x="517" 
d="M284 475c117 0 184 -62 184 -170c0 -22 -3 -49 -9 -60h-337v-10c0 -102 52 -194 163 -194c64 0 125 32 162 58l12 -57c-35 -22 -102 -54 -182 -54c-149 0 -230 113 -230 242c0 132 84 245 237 245zM281 419c-87 0 -135 -52 -152 -121h273c1 6 1 12 1 18
c0 68 -58 103 -122 103z" />
    <glyph glyph-name="eacute" unicode="&#xe9;" horiz-adv-x="516" 
d="M284 475c117 0 184 -62 184 -170c0 -22 -3 -49 -9 -60h-337v-10c0 -102 52 -194 163 -194c64 0 124 28 161 54l13 -53c-35 -22 -102 -54 -182 -54c-149 0 -230 113 -230 242c0 132 84 245 237 245zM281 419c-87 0 -135 -52 -152 -121h273c1 6 1 12 1 18
c0 68 -58 103 -122 103zM206 549l-7 3l-6 20l3 7l180 101c23 -1 35 -16 35 -35c0 -5 0 -12 -3 -19z" />
    <glyph glyph-name="ecircumflex" unicode="&#xea;" horiz-adv-x="516" 
d="M284 475c117 0 184 -62 184 -170c0 -22 -3 -49 -9 -60h-337v-10c0 -102 52 -194 163 -194c64 0 124 28 161 54l13 -53c-35 -22 -102 -54 -182 -54c-149 0 -230 113 -230 242c0 132 84 245 237 245zM281 419c-87 0 -135 -52 -152 -121h273c1 6 1 12 1 18
c0 68 -58 103 -122 103zM268 673h7l111 -99l2 -7l-5 -19l-8 -3l-103 61l-104 -61l-8 3l-5 19l2 7z" />
    <glyph glyph-name="edieresis" unicode="&#xeb;" horiz-adv-x="516" 
d="M284 475c117 0 184 -62 184 -170c0 -22 -3 -49 -9 -60h-337v-10c0 -102 52 -194 163 -194c64 0 124 28 161 54l13 -53c-35 -22 -102 -54 -182 -54c-149 0 -230 113 -230 242c0 132 84 245 237 245zM281 419c-87 0 -135 -52 -152 -121h273c1 6 1 12 1 18
c0 68 -58 103 -122 103zM306 626c0 24 18 45 41 45c22 0 42 -21 42 -45c0 -25 -20 -44 -42 -44c-23 0 -41 19 -41 44zM149 626c0 24 18 45 41 45c22 0 42 -21 42 -45c0 -25 -20 -44 -42 -44c-23 0 -41 19 -41 44z" />
    <glyph glyph-name="egrave" unicode="&#xe8;" horiz-adv-x="516" 
d="M284 475c117 0 184 -62 184 -170c0 -22 -3 -49 -9 -60h-337v-10c0 -102 52 -194 163 -194c64 0 124 28 161 54l13 -53c-35 -22 -102 -54 -182 -54c-149 0 -230 113 -230 242c0 132 84 245 237 245zM281 419c-87 0 -135 -52 -152 -121h273c1 6 1 12 1 18
c0 68 -58 103 -122 103zM351 552l-8 -3l-202 77c-2 7 -3 14 -3 19c0 19 12 34 35 35l180 -101l3 -7z" />
    <glyph glyph-name="eight" unicode="8" horiz-adv-x="558" 
d="M379 366v-4c77 -17 121 -85 121 -174c0 -111 -69 -200 -222 -200c-160 0 -220 96 -220 198c0 88 45 152 121 175v4c-47 17 -88 67 -88 140c0 95 69 160 188 160c116 0 188 -62 188 -157c0 -70 -39 -121 -88 -142zM417 181c0 75 -39 147 -139 147
c-101 0 -139 -73 -139 -147c0 -84 49 -132 139 -132s139 48 139 132zM385 501c0 56 -27 101 -107 101c-78 0 -107 -43 -107 -101c0 -66 38 -113 107 -113s107 47 107 113z" />
    <glyph glyph-name="ellipsis" unicode="&#x2026;" horiz-adv-x="613" 
d="M71 35c0 25 20 48 46 48c25 0 48 -23 48 -48s-23 -46 -48 -46c-26 0 -46 21 -46 46zM260 35c0 25 21 48 46 48s48 -23 48 -48s-23 -46 -48 -46s-46 21 -46 46zM449 35c0 25 21 48 46 48s48 -23 48 -48s-23 -46 -48 -46s-46 21 -46 46z" />
    <glyph glyph-name="emdash" unicode="&#x2014;" horiz-adv-x="790" 
d="M74 265h642v-52h-642v52z" />
    <glyph glyph-name="endash" unicode="&#x2013;" horiz-adv-x="562" 
d="M74 265h414v-52h-414v52z" />
    <glyph glyph-name="equal" unicode="=" horiz-adv-x="490" 
d="M76 189h338v-52h-338v52zM76 341h338v-52h-338v52z" />
    <glyph glyph-name="eth" unicode="&#xf0;" horiz-adv-x="564" 
d="M271 740h73c27 -24 52 -56 74 -94l117 31l18 -48l-112 -29c41 -88 67 -200 67 -311c0 -155 -50 -301 -229 -301c-165 0 -231 123 -231 247c0 128 71 240 233 240c73 0 134 -23 161 -79l3 1c-18 80 -36 139 -60 189l-125 -32l-17 46l118 31c-24 38 -53 72 -90 109zM279 41
c109 0 158 95 158 198c0 119 -66 181 -160 181c-112 0 -154 -89 -154 -183c0 -100 47 -196 156 -196z" />
    <glyph glyph-name="exclam" unicode="!" horiz-adv-x="258" 
d="M83 35c0 25 21 48 47 48c24 0 47 -23 47 -48s-23 -46 -47 -46c-26 0 -47 21 -47 46zM152 150h-47l-24 532h97z" />
    <glyph glyph-name="exclamdown" unicode="&#xa1;" horiz-adv-x="240" 
d="M74 429c0 25 21 46 47 46c24 0 47 -21 47 -46s-23 -48 -47 -48c-26 0 -47 23 -47 48zM96 314h47l26 -532h-97z" />
    <glyph glyph-name="f" unicode="f" horiz-adv-x="298" 
d="M102 0v413h-77v37l77 9c0 150 22 207 41 237c25 37 65 49 105 49c12 0 56 -1 87 -17l-17 -59c-9 0 -62 24 -95 24c-40 0 -51 -42 -51 -167v-66h108v-47h-108v-413h-70z" />
    <glyph glyph-name="five" unicode="5" horiz-adv-x="538" 
d="M106 302l-29 15l37 348h339v-70h-276l-26 -213c41 9 89 16 128 16c121 0 208 -68 208 -190c0 -117 -80 -220 -245 -220c-77 0 -145 23 -195 62l21 70c49 -39 101 -66 175 -66c101 0 162 51 162 147c0 75 -37 126 -157 126c-47 0 -98 -8 -142 -25z" />
    <glyph glyph-name="florin" unicode="&#x192;" horiz-adv-x="609" 
d="M468 413h-117l-85 -416c-28 -137 -111 -255 -212 -255c-9 0 -18 1 -21 3l-4 58c4 -2 12 -3 21 -3c91 0 126 108 145 200l85 413h-67v37l77 10l19 90c34 162 110 195 183 195c13 0 65 -1 93 -17l-30 -63c-14 15 -45 28 -83 28c-50 0 -67 -22 -97 -167l-14 -66h107v-47z
" />
    <glyph glyph-name="four" unicode="4" horiz-adv-x="508" 
d="M459 280v-70h-69v-210h-75v210h-284v70l279 380h80v-380h69zM116 280h199v271z" />
    <glyph glyph-name="foursuperior" unicode="&#x2074;" horiz-adv-x="331" 
d="M273 452v-42h-36v-111h-45v111h-150v42l147 213h48v-213h36zM93 452h99v154z" />
    <glyph glyph-name="g" unicode="g" horiz-adv-x="508" 
d="M141 138v4c-63 25 -90 87 -90 150c0 103 72 183 188 183c35 0 71 -7 96 -20c55 1 105 6 147 18l5 -4l-7 -55l-5 -5l-91 4l-1 -3c34 -28 50 -79 50 -121c0 -88 -67 -165 -190 -165c-14 0 -25 1 -34 1c-28 -9 -42 -28 -42 -39c0 -13 17 -24 57 -28l97 -10
c87 -9 157 -54 157 -134c0 -39 -17 -83 -52 -112s-98 -50 -178 -50c-137 0 -216 61 -216 133c0 53 45 107 96 126v4c-26 12 -41 30 -41 52c0 28 24 50 54 71zM243 174c74 0 117 54 117 115c0 62 -43 134 -123 134c-77 0 -115 -67 -115 -125c0 -60 41 -124 121 -124zM211 -5
c-60 0 -108 -52 -108 -98c0 -51 58 -83 150 -83c88 0 155 30 155 90s-65 82 -197 91z" />
    <glyph glyph-name="germandbls" unicode="&#xdf;" horiz-adv-x="544" 
d="M148 486v-486h-70v486c0 150 62 250 185 250c98 0 162 -65 162 -135c0 -90 -102 -151 -102 -211c0 -82 188 -96 188 -252c0 -109 -92 -150 -151 -150c-44 0 -83 22 -107 44l20 71c20 -40 58 -63 94 -63c39 0 70 29 70 87c0 142 -180 126 -180 256c0 93 93 138 93 213
c0 42 -30 79 -91 79c-97 0 -111 -92 -111 -189z" />
    <glyph glyph-name="grave" unicode="`" horiz-adv-x="219" 
d="M213 552l-8 -3l-201 77c-3 7 -4 14 -4 19c0 19 12 34 35 35l181 -101l3 -7z" />
    <glyph glyph-name="greater" unicode="&#x3e;" horiz-adv-x="408" 
d="M264 238v5l-197 131l18 63l285 -194v-5l-286 -197l-18 64z" />
    <glyph glyph-name="guillemotleft" unicode="&#xab;" horiz-adv-x="484" 
d="M121 243v-5l144 -177h-80l-133 177v5l134 177h79zM283 243v-5l144 -177h-80l-133 177v5l134 177h79z" />
    <glyph glyph-name="guillemotright" unicode="&#xbb;" horiz-adv-x="484" 
d="M363 238v5l-144 177h79l134 -177v-5l-133 -177h-80zM201 238v5l-144 177h79l134 -177v-5l-133 -177h-80z" />
    <glyph glyph-name="guilsinglleft" unicode="&#x2039;" horiz-adv-x="322" 
d="M121 243v-5l144 -177h-80l-133 177v5l134 177h79z" />
    <glyph glyph-name="guilsinglright" unicode="&#x203a;" horiz-adv-x="322" 
d="M201 238v5l-144 177h79l134 -177v-5l-133 -177h-80z" />
    <glyph glyph-name="h" unicode="h" horiz-adv-x="545" 
d="M471 0h-70v304c0 81 -40 112 -96 112c-67 0 -133 -44 -157 -121v-295h-70v740h70v-366c17 56 78 101 167 101c85 0 156 -41 156 -162v-313z" />
    <glyph glyph-name="hyphen" unicode="-" horiz-adv-x="486" 
d="M74 265h338v-52h-338v52z" />
    <glyph glyph-name="i" unicode="i" horiz-adv-x="226" 
d="M148 460v-460h-70v460h70zM63 628c0 27 22 52 50 52c27 0 52 -25 52 -52c0 -28 -25 -50 -52 -50c-28 0 -50 22 -50 50z" />
    <glyph glyph-name="iacute" unicode="&#xed;" horiz-adv-x="226" 
d="M28 549l-7 3l-6 20l3 7l180 101c23 -1 36 -16 36 -35c0 -5 -1 -12 -4 -19zM148 460v-460h-70v460h70z" />
    <glyph glyph-name="icircumflex" unicode="&#xee;" horiz-adv-x="226" 
d="M106 673h8l110 -99l3 -7l-6 -19l-7 -3l-104 61l-103 -61l-8 3l-6 19l3 7zM148 460v-460h-70v460h70z" />
    <glyph glyph-name="idieresis" unicode="&#xef;" horiz-adv-x="226" 
d="M-8 626c0 24 18 45 41 45c22 0 42 -21 42 -45c0 -25 -20 -44 -42 -44c-23 0 -41 19 -41 44zM149 626c0 24 18 45 41 45c22 0 42 -21 42 -45c0 -25 -20 -44 -42 -44c-23 0 -41 19 -41 44zM148 460v-460h-70v460h70z" />
    <glyph glyph-name="igrave" unicode="&#xec;" horiz-adv-x="226" 
d="M179 552l-8 -3l-201 77c-3 7 -4 14 -4 19c0 19 12 34 35 35l181 -101l3 -7zM148 460v-460h-70v460h70z" />
    <glyph glyph-name="j" unicode="j" horiz-adv-x="226" 
d="M148 460v-463c0 -137 -51 -255 -153 -255c-9 0 -18 1 -22 3l-16 58c4 -2 13 -3 22 -3c91 0 99 115 99 198v462h70zM63 628c0 27 22 52 50 52c27 0 52 -25 52 -52c0 -28 -25 -50 -52 -50c-28 0 -50 22 -50 50z" />
    <glyph glyph-name="k" unicode="k" horiz-adv-x="474" 
d="M430 460l-164 -162l196 -298h-80l-165 250l-69 -69v-181h-70v740h70v-474l202 194h80z" />
    <glyph glyph-name="l" unicode="l" horiz-adv-x="238" 
d="M154 740v-740h-70v740h70z" />
    <glyph glyph-name="less" unicode="&#x3c;" horiz-adv-x="408" 
d="M144 243v-5l198 -133l-18 -64l-286 197v5l285 194l18 -63z" />
    <glyph glyph-name="logicalnot" unicode="&#xac;" horiz-adv-x="632" 
d="M76 341h480v-224h-53v172h-427v52z" />
    <glyph glyph-name="m" unicode="m" horiz-adv-x="859" 
d="M467 0h-70v304c0 81 -42 112 -98 112c-67 0 -127 -44 -151 -121v-295h-70v460h55l8 -86h4c17 56 75 101 162 101c80 0 137 -38 152 -101c27 53 79 101 170 101c83 0 157 -41 157 -162v-313h-70v304c0 81 -42 112 -98 112c-67 0 -127 -44 -151 -121v-295z" />
    <glyph glyph-name="mu" unicode="&#xb5;" horiz-adv-x="577" 
d="M116 460h70v-304c0 -82 41 -109 96 -109c67 0 133 41 157 118v295h70v-460h-55l-8 86h-4c-17 -56 -81 -98 -170 -98c-43 0 -83 10 -111 35l-3 -13c-12 -51 -30 -100 -54 -150l-64 29c47 90 76 160 76 258v313z" />
    <glyph glyph-name="multiply" unicode="&#xd7;" horiz-adv-x="458" 
d="M350 80l-122 122l-120 -121l-37 37l120 121l-120 120l37 37l120 -120l122 121l37 -37l-122 -121l122 -122z" />
    <glyph glyph-name="n" unicode="n" horiz-adv-x="545" 
d="M471 0h-70v304c0 80 -40 112 -96 112c-67 0 -133 -44 -157 -121v-295h-70v460h55l8 -86h4c17 56 81 101 170 101c85 0 156 -41 156 -162v-313z" />
    <glyph glyph-name="nine" unicode="9" horiz-adv-x="552" 
d="M418 324l-3 1c-31 -58 -101 -74 -164 -74c-167 0 -200 130 -200 203c0 97 59 210 212 210c167 0 226 -123 226 -311c0 -183 -55 -365 -248 -365c-43 0 -118 10 -158 48l17 66c45 -37 100 -49 140 -49c138 0 179 127 179 242c0 10 0 19 -1 29zM129 453
c0 -73 31 -141 127 -141c100 0 145 63 145 147c0 87 -50 144 -138 144c-82 0 -134 -56 -134 -150z" />
    <glyph glyph-name="ntilde" unicode="&#xf1;" horiz-adv-x="545" 
d="M431 663c-8 -36 -33 -77 -88 -77c-53 0 -113 14 -155 14c-33 0 -42 -9 -55 -25l-13 8c12 36 34 76 91 76c67 0 93 -14 143 -14c22 0 47 2 65 26zM471 0h-70v304c0 81 -40 112 -96 112c-67 0 -133 -44 -157 -121v-295h-70v460h55l8 -86h4c17 56 81 101 170 101
c85 0 156 -41 156 -162v-313z" />
    <glyph glyph-name="numbersign" unicode="#" horiz-adv-x="614" 
d="M500 654l-44 -208h121l-10 -52h-122l-26 -119h128l-10 -53h-129l-47 -222h-64l47 222h-126l-47 -222h-64l47 222h-116l10 53h117l26 119h-123l10 52h124l44 208h64l-44 -208h126l44 208h64zM255 394l-26 -119h126l26 119h-126z" />
    <glyph glyph-name="o" unicode="o" horiz-adv-x="561" 
d="M280 475c162 0 233 -118 233 -248s-71 -239 -229 -239c-162 0 -236 114 -236 244s74 243 232 243zM283 41c108 0 156 86 156 185c0 101 -50 193 -162 193c-108 0 -155 -85 -155 -184c0 -101 49 -194 161 -194z" />
    <glyph glyph-name="oacute" unicode="&#xf3;" horiz-adv-x="561" 
d="M213 549l-7 3l-6 20l3 7l180 101c23 -1 36 -16 36 -35c0 -5 -1 -12 -4 -19zM280 475c162 0 233 -118 233 -248s-71 -239 -229 -239c-162 0 -236 114 -236 244s74 243 232 243zM283 41c108 0 156 86 156 185c0 101 -50 193 -162 193c-108 0 -155 -85 -155 -184
c0 -101 49 -194 161 -194z" />
    <glyph glyph-name="ocircumflex" unicode="&#xf4;" horiz-adv-x="561" 
d="M285 673h7l110 -99l3 -7l-5 -19l-8 -3l-104 61l-103 -61l-8 3l-6 19l3 7zM280 475c162 0 233 -118 233 -248s-71 -239 -229 -239c-162 0 -236 114 -236 244s74 243 232 243zM283 41c108 0 156 86 156 185c0 101 -50 193 -162 193c-108 0 -155 -85 -155 -184
c0 -101 49 -194 161 -194z" />
    <glyph glyph-name="odieresis" unicode="&#xf6;" horiz-adv-x="561" 
d="M161 626c0 24 18 45 41 45c22 0 42 -21 42 -45c0 -25 -20 -44 -42 -44c-23 0 -41 19 -41 44zM318 626c0 24 18 45 41 45c22 0 42 -21 42 -45c0 -25 -20 -44 -42 -44c-23 0 -41 19 -41 44zM280 475c162 0 233 -118 233 -248s-71 -239 -229 -239c-162 0 -236 114 -236 244
s74 243 232 243zM283 41c108 0 156 86 156 185c0 101 -50 193 -162 193c-108 0 -155 -85 -155 -184c0 -101 49 -194 161 -194z" />
    <glyph glyph-name="oe" unicode="&#x153;" horiz-adv-x="912" 
d="M680 474c117 0 184 -62 184 -170c0 -22 -3 -49 -9 -60h-337v-10c0 -102 52 -194 163 -194c64 0 124 28 161 54l13 -53c-35 -22 -102 -54 -182 -54c-90 0 -158 41 -195 102c-35 -61 -97 -102 -194 -102c-162 0 -236 114 -236 244s74 243 232 243c98 0 161 -44 197 -107
c38 64 108 107 203 107zM283 40c108 0 156 86 156 185c0 101 -50 193 -162 193c-108 0 -155 -85 -155 -184c0 -101 49 -194 161 -194zM677 418c-87 0 -135 -52 -152 -121h273c1 6 1 12 1 18c0 68 -58 103 -122 103z" />
    <glyph glyph-name="ograve" unicode="&#xf2;" horiz-adv-x="561" 
d="M349 552l-7 -3l-202 77c-3 7 -4 14 -4 19c0 19 13 34 35 35l181 -101l3 -7zM280 475c162 0 233 -118 233 -248s-71 -239 -229 -239c-162 0 -236 114 -236 244s74 243 232 243zM283 41c108 0 156 86 156 185c0 101 -50 193 -162 193c-108 0 -155 -85 -155 -184
c0 -101 49 -194 161 -194z" />
    <glyph glyph-name="one" unicode="1" horiz-adv-x="317" 
d="M218 660v-660h-75v526l-96 -46l-22 70z" />
    <glyph glyph-name="fraction" unicode="&#x2044;" horiz-adv-x="509" 
d="M519 691l-463 -715h-65l463 715h65z" />
    <glyph glyph-name="onesuperior" unicode="&#xb9;" horiz-adv-x="248" 
d="M167 665v-366h-54v286l-57 -28l-13 42z" />
    <glyph glyph-name="ordfeminine" unicode="&#xaa;" horiz-adv-x="373" 
d="M298 369h-40l-5 49h-4c-19 -30 -64 -57 -110 -57c-52 0 -79 35 -79 81c0 92 106 104 162 104h27v7c0 45 -30 67 -77 67c-34 0 -58 -9 -82 -24l-10 36c27 16 59 26 96 26c62 0 122 -27 122 -100v-189zM152 402c32 0 74 23 97 62v48h-5c-65 0 -136 -5 -136 -67
c0 -31 15 -43 44 -43z" />
    <glyph glyph-name="ordmasculine" unicode="&#xba;" horiz-adv-x="390" 
d="M194 658c90 0 140 -70 140 -148c0 -73 -46 -141 -139 -141c-95 0 -139 71 -139 144c0 79 52 145 138 145zM195 410c62 0 87 42 87 100c0 57 -28 104 -90 104c-63 0 -85 -43 -85 -100c0 -58 28 -104 88 -104z" />
    <glyph glyph-name="oslash" unicode="&#xf8;" horiz-adv-x="561" 
d="M41 8l56 63c-33 44 -49 101 -49 161c0 130 74 243 232 243c56 0 102 -15 137 -39l51 58l51 -39l-56 -63c34 -45 50 -104 50 -165c0 -130 -71 -239 -229 -239c-58 0 -105 14 -141 39l-54 -62zM283 41c108 0 156 86 156 185c0 40 -8 78 -24 110l-230 -262
c25 -21 57 -33 98 -33zM122 235c0 -39 7 -77 23 -109l229 261c-25 20 -57 32 -97 32c-108 0 -155 -85 -155 -184z" />
    <glyph glyph-name="otilde" unicode="&#xf5;" horiz-adv-x="561" 
d="M427 663c-8 -36 -33 -77 -88 -77c-53 0 -113 14 -155 14c-33 0 -42 -9 -55 -25l-13 8c12 36 34 76 91 76c67 0 93 -14 143 -14c22 0 47 2 65 26zM280 475c162 0 233 -118 233 -248s-71 -239 -229 -239c-162 0 -236 114 -236 244s74 243 232 243zM283 41
c108 0 156 86 156 185c0 101 -50 193 -162 193c-108 0 -155 -85 -155 -184c0 -101 49 -194 161 -194z" />
    <glyph glyph-name="p" unicode="p" horiz-adv-x="575" 
d="M325 475c136 0 202 -114 202 -241c0 -132 -71 -246 -213 -246c-89 0 -149 44 -166 101v-349h-70v720h55l8 -86h4c32 49 95 101 180 101zM307 416c-64 0 -122 -36 -159 -101v-147c24 -76 96 -121 165 -121c93 0 140 81 140 182c0 97 -44 187 -146 187z" />
    <glyph glyph-name="paragraph" unicode="&#xb6;" horiz-adv-x="533" 
d="M285 -86v334h-21c-156 0 -229 94 -229 205c0 138 96 212 240 212c47 0 102 -3 159 -5v-746h-45v685h-54v-685h-50z" />
    <glyph glyph-name="parenleft" unicode="(" horiz-adv-x="311" 
d="M252 771l38 -13c-109 -123 -150 -251 -150 -431c0 -109 10 -268 149 -431l-37 -13c-127 114 -202 274 -202 444s75 328 202 444z" />
    <glyph glyph-name="parenright" unicode=")" horiz-adv-x="311" 
d="M21 758l38 13c127 -116 202 -274 202 -444s-75 -330 -202 -444l-37 13c139 163 149 322 149 431c0 180 -41 308 -150 431z" />
    <glyph glyph-name="zerosuperior" unicode="&#x2070;" horiz-adv-x="407" 
d="M204 665c93 0 147 -85 147 -184c0 -97 -54 -187 -151 -187c-94 0 -143 84 -143 183c0 105 55 188 147 188zM201 339c67 0 95 62 95 140c0 83 -30 141 -94 141c-65 0 -89 -57 -89 -137c0 -96 33 -144 88 -144z" />
    <glyph glyph-name="period" unicode="." horiz-adv-x="235" 
d="M71 35c0 25 20 48 46 48c25 0 48 -23 48 -48s-23 -46 -48 -46c-26 0 -46 21 -46 46z" />
    <glyph glyph-name="periodcentered" unicode="&#xb7;" horiz-adv-x="242" 
d="M74 243c0 25 21 48 47 48c24 0 47 -23 47 -48s-23 -46 -47 -46c-26 0 -47 21 -47 46z" />
    <glyph glyph-name="plus" unicode="+" horiz-adv-x="497" 
d="M274 427v-162h172v-52h-172v-172h-52v172h-171v52h171v162h52z" />
    <glyph glyph-name="plusminus" unicode="&#xb1;" horiz-adv-x="483" 
d="M267 455v-104h134v-53h-134v-115h-52v115h-133v53h133v104h52zM82 123h319v-53h-319v53z" />
    <glyph glyph-name="q" unicode="q" horiz-adv-x="575" 
d="M247 475c89 0 150 -51 183 -101h4l8 86h55v-720h-70v349c-17 -57 -77 -101 -166 -101c-142 0 -213 114 -213 245c0 128 67 242 199 242zM268 416c-102 0 -146 -90 -146 -187c0 -101 47 -182 140 -182c69 0 141 45 165 121v147c-37 65 -95 101 -159 101z" />
    <glyph glyph-name="question" unicode="?" horiz-adv-x="412" 
d="M137 36c0 26 21 47 46 47s48 -21 48 -47c0 -25 -23 -47 -48 -47s-46 22 -46 47zM58 571l-18 66c36 28 95 49 145 49c107 0 174 -66 174 -162c0 -121 -145 -189 -146 -373h-64c0 201 138 252 138 374c0 53 -34 96 -103 96c-43 0 -98 -22 -126 -50z" />
    <glyph glyph-name="questiondown" unicode="&#xbf;" horiz-adv-x="402" 
d="M268 428c0 -26 -21 -47 -46 -47s-48 21 -48 47c0 25 23 47 48 47s46 -22 46 -47zM347 -107l18 -66c-36 -28 -95 -49 -145 -49c-107 0 -174 66 -174 162c0 121 145 189 146 373h64c0 -201 -138 -252 -138 -374c0 -53 34 -96 103 -96c43 0 98 22 126 50z" />
    <glyph glyph-name="quotedbl" unicode="&#x22;" horiz-adv-x="334" 
d="M116 516h-36l-21 216h81zM253 516h-36l-21 216h81z" />
    <glyph glyph-name="quotedblbase" unicode="&#x201e;" horiz-adv-x="404" 
d="M88 -97l-20 19l39 73h-25v90h79v-105zM249 -97l-20 19l39 73h-25v90h79v-105z" />
    <glyph glyph-name="quotedblleft" unicode="&#x201c;" horiz-adv-x="375" 
d="M146 734l20 -19l-39 -73h25v-90h-79v105zM296 734l20 -19l-39 -73h25v-90h-79v105z" />
    <glyph glyph-name="quotedblright" unicode="&#x201d;" horiz-adv-x="355" 
d="M232 552l-20 19l39 73h-25v90h79v-105zM82 552l-20 19l39 73h-25v90h79v-105z" />
    <glyph glyph-name="quoteleft" unicode="&#x2018;" horiz-adv-x="225" 
d="M146 734l20 -19l-39 -73h25v-90h-79v105z" />
    <glyph glyph-name="quoteright" unicode="&#x2019;" horiz-adv-x="205" 
d="M82 552l-20 19l39 73h-25v90h79v-105z" />
    <glyph glyph-name="quotesinglbase" unicode="&#x201a;" horiz-adv-x="243" 
d="M88 -97l-20 19l39 73h-25v90h79v-105z" />
    <glyph glyph-name="quotesingle" unicode="'" horiz-adv-x="197" 
d="M116 516h-36l-21 216h81z" />
    <glyph glyph-name="r" unicode="r" horiz-adv-x="357" 
d="M347 452l-21 -66c-21 12 -43 20 -63 20c-53 0 -99 -64 -115 -137v-269h-70v460h55l8 -101h4c19 62 61 116 132 116c25 0 58 -10 70 -23z" />
    <glyph glyph-name="registered" unicode="&#xae;" horiz-adv-x="725" 
d="M362 654c168 0 304 -135 304 -300c0 -169 -136 -302 -309 -302c-163 0 -298 137 -298 302s135 300 303 300zM362 613c-144 0 -256 -115 -256 -259c0 -146 112 -261 252 -261c149 0 261 113 261 261c0 144 -113 259 -257 259zM262 201v329c23 1 61 2 85 2
c73 0 124 -20 124 -93c0 -41 -30 -77 -79 -90l101 -148h-55l-99 145h-29v-145h-48zM349 494c-14 0 -27 -1 -39 -1v-111c12 -1 25 -1 40 -1c44 0 71 22 71 62c0 30 -20 51 -72 51z" />
    <glyph glyph-name="ring" unicode="&#x2da;" horiz-adv-x="164" 
d="M82 683c52 0 82 -38 82 -75c0 -35 -28 -70 -81 -70c-56 0 -83 38 -83 72c0 37 30 73 82 73zM83 562c26 0 43 24 43 46c0 24 -18 51 -45 51c-29 0 -44 -25 -44 -48c0 -24 19 -49 46 -49z" />
    <glyph glyph-name="s" unicode="s" horiz-adv-x="441" 
d="M213 419c-64 0 -91 -25 -91 -65c0 -27 13 -59 76 -73l71 -16c112 -25 130 -87 130 -129c0 -83 -69 -148 -182 -148c-70 0 -134 25 -170 50l18 65c48 -44 113 -63 159 -63c66 0 102 40 102 76c0 23 -1 66 -70 83l-96 24c-87 22 -109 71 -109 118c0 81 66 134 167 134
c52 0 119 -14 160 -41l-19 -60c-27 22 -84 45 -146 45z" />
    <glyph glyph-name="scaron" unicode="&#x161;" horiz-adv-x="441" 
d="M219 545h-7l-111 99l-2 6l5 20l8 3l103 -62l104 62l8 -3l5 -20l-2 -6zM213 419c-64 0 -91 -25 -91 -65c0 -27 13 -59 76 -73l71 -16c112 -25 130 -87 130 -129c0 -83 -69 -148 -182 -148c-70 0 -134 25 -170 50l18 65c48 -44 113 -63 159 -63c66 0 102 40 102 76
c0 23 -1 66 -70 83l-96 24c-87 22 -109 71 -109 118c0 81 66 134 167 134c52 0 119 -14 160 -41l-19 -60c-27 22 -84 45 -146 45z" />
    <glyph glyph-name="section" unicode="&#xa7;" horiz-adv-x="440" 
d="M276 72c0 116 -230 152 -230 300c0 50 26 100 64 129c-8 18 -12 39 -12 62c0 99 81 146 147 146c39 0 86 -17 115 -38l-25 -67c-24 27 -61 42 -94 42c-40 0 -77 -25 -77 -72c0 -116 230 -152 230 -300c0 -50 -26 -101 -64 -129c7 -19 12 -39 12 -62
c0 -99 -81 -146 -147 -146c-39 0 -86 17 -115 38l25 67c24 -27 61 -42 94 -42c40 0 77 25 77 72zM332 250c0 86 -133 125 -198 210c-18 -17 -26 -43 -26 -64c0 -87 132 -125 198 -211c18 17 26 43 26 65z" />
    <glyph glyph-name="semicolon" unicode=";" horiz-adv-x="254" 
d="M83 408c0 25 20 47 46 47c25 0 48 -22 48 -47c0 -26 -23 -47 -48 -47c-26 0 -46 21 -46 47zM95 -97l-20 19l39 73h-25v90h79v-105z" />
    <glyph glyph-name="seven" unicode="7" horiz-adv-x="457" 
d="M167 0h-87c-1 12 -1 27 -1 39c0 169 157 415 283 556h-322v70h405v-70c-134 -132 -279 -406 -279 -555c0 -15 0 -28 1 -40z" />
    <glyph glyph-name="six" unicode="6" horiz-adv-x="551" 
d="M134 328l3 -1c31 58 101 74 164 74c167 0 200 -130 200 -203c0 -97 -59 -210 -212 -210c-167 0 -226 123 -226 311c0 183 55 365 248 365c43 0 118 -10 158 -48l-17 -66c-45 37 -100 49 -140 49c-138 0 -179 -127 -179 -242c0 -10 0 -19 1 -29zM423 199
c0 73 -31 141 -127 141c-100 0 -145 -63 -145 -147c0 -87 50 -144 138 -144c82 0 134 56 134 150z" />
    <glyph glyph-name="slash" unicode="/" horiz-adv-x="424" 
d="M389 702l-278 -759h-75l278 759h75z" />
    <glyph glyph-name="space" unicode=" " horiz-adv-x="245" 
 />
    <glyph glyph-name="sterling" unicode="&#xa3;" horiz-adv-x="567" 
d="M179 54l2 -3c83 -4 168 -42 255 -42c33 0 58 6 89 19l-19 -73c-33 -17 -52 -20 -81 -20c-97 0 -182 66 -285 66c-13 0 -55 -1 -92 -32l-14 47c105 46 141 137 141 234v15h-98v52h94c-7 61 -19 123 -19 169c0 131 101 179 190 179c61 0 122 -23 156 -49l-18 -66
c-26 27 -83 49 -136 49c-79 0 -102 -49 -102 -111c0 -45 12 -105 16 -171h139v-52h-137c-2 -68 -28 -149 -81 -211z" />
    <glyph glyph-name="t" unicode="t" horiz-adv-x="313" 
d="M99 92v321h-77v37l79 10l15 139h53v-139h108v-47h-108v-319c0 -43 12 -52 39 -52c30 0 55 11 73 24l14 -53c-22 -10 -61 -24 -105 -24c-85 0 -91 54 -91 103z" />
    <glyph glyph-name="thorn" unicode="&#xfe;" horiz-adv-x="575" 
d="M325 475c136 0 202 -114 202 -241c0 -132 -71 -246 -213 -246c-89 0 -149 44 -166 101v-349h-70v1000h70v-366c28 46 92 101 177 101zM307 416c-64 0 -122 -36 -159 -101v-147c24 -76 96 -121 165 -121c93 0 140 81 140 182c0 97 -44 187 -146 187z" />
    <glyph glyph-name="three" unicode="3" horiz-adv-x="535" 
d="M95 550l-18 66c45 28 118 49 172 49c118 0 197 -59 197 -172c0 -55 -42 -106 -95 -134c79 -27 127 -79 127 -166c0 -111 -81 -205 -246 -205c-77 0 -145 23 -195 62l20 67c47 -38 104 -63 172 -63c107 0 166 51 166 147c0 76 -47 124 -168 124h-27v57h31
c83 0 132 46 132 119c0 58 -28 98 -108 98c-60 0 -127 -22 -160 -49z" />
    <glyph glyph-name="threesuperior" unicode="&#xb3;" horiz-adv-x="357" 
d="M91 596l-11 39c27 17 55 30 87 30c71 0 112 -33 112 -94c0 -29 -26 -55 -57 -70c47 -14 76 -42 76 -90c0 -61 -42 -117 -141 -117c-46 0 -71 14 -101 38l12 40c28 -23 47 -38 87 -38c65 0 93 31 93 82c0 40 -21 65 -94 65h-12v34h15c49 0 72 23 72 61c0 29 -10 49 -58 49
c-36 0 -60 -13 -80 -29z" />
    <glyph glyph-name="tilde" unicode="&#x2dc;" horiz-adv-x="311" 
d="M311 663c-8 -36 -33 -77 -88 -77c-53 0 -113 14 -155 14c-33 0 -42 -9 -55 -25l-13 8c12 36 34 76 91 76c67 0 93 -14 143 -14c22 0 47 2 65 26z" />
    <glyph glyph-name="trademark" unicode="&#x2122;" horiz-adv-x="691" 
d="M438 369l-84 210v-210h-38v284h48l98 -242l97 242h47v-284h-39v209l-84 -209h-45zM279 653v-39h-84v-245h-47v245h-84v39h215z" />
    <glyph glyph-name="two" unicode="2" horiz-adv-x="509" 
d="M74 550l-18 66c51 28 130 49 195 49c116 0 194 -66 194 -162c0 -148 -185 -288 -313 -433h320v-70h-405v70c121 156 315 292 315 432c0 53 -28 97 -113 97c-58 0 -137 -21 -175 -49z" />
    <glyph glyph-name="twosuperior" unicode="&#xb2;" horiz-adv-x="375" 
d="M91 572l-11 44c31 28 69 49 108 49c70 0 109 -40 109 -97c0 -89 -90 -148 -171 -227h175v-42h-236v42c63 79 180 145 180 226c0 23 -11 58 -58 58c-35 0 -73 -24 -96 -53z" />
    <glyph glyph-name="u" unicode="u" horiz-adv-x="544" 
d="M73 460h70v-304c0 -82 41 -109 96 -109c67 0 133 41 157 118v295h70v-460h-55l-8 86h-4c-17 -56 -81 -98 -170 -98c-85 0 -156 38 -156 159v313z" />
    <glyph glyph-name="uacute" unicode="&#xfa;" horiz-adv-x="544" 
d="M179 549l-8 3l-5 20l3 7l180 101c23 -1 35 -16 35 -35c0 -5 -1 -12 -3 -19zM73 460h70v-304c0 -82 41 -109 96 -109c67 0 133 41 157 118v295h70v-460h-55l-8 86h-4c-17 -56 -81 -98 -170 -98c-85 0 -156 38 -156 159v313z" />
    <glyph glyph-name="ucircumflex" unicode="&#xfb;" horiz-adv-x="544" 
d="M263 673h7l111 -99l2 -7l-5 -19l-8 -3l-104 61l-103 -61l-8 3l-5 19l2 7zM73 460h70v-304c0 -82 41 -109 96 -109c67 0 133 41 157 118v295h70v-460h-55l-8 86h-4c-17 -56 -81 -98 -170 -98c-85 0 -156 38 -156 159v313z" />
    <glyph glyph-name="udieresis" unicode="&#xfc;" horiz-adv-x="544" 
d="M146 626c0 24 18 45 41 45c22 0 42 -21 42 -45c0 -25 -20 -44 -42 -44c-23 0 -41 19 -41 44zM303 626c0 24 18 45 41 45c22 0 42 -21 42 -45c0 -25 -20 -44 -42 -44c-23 0 -41 19 -41 44zM73 460h70v-304c0 -82 41 -109 96 -109c67 0 133 41 157 118v295h70v-460h-55
l-8 86h-4c-17 -56 -81 -98 -170 -98c-85 0 -156 38 -156 159v313z" />
    <glyph glyph-name="ugrave" unicode="&#xf9;" horiz-adv-x="544" 
d="M341 552l-8 -3l-201 77c-3 7 -4 14 -4 19c0 19 12 34 35 35l180 -101l3 -7zM73 460h70v-304c0 -82 41 -109 96 -109c67 0 133 41 157 118v295h70v-460h-55l-8 86h-4c-17 -56 -81 -98 -170 -98c-85 0 -156 38 -156 159v313z" />
    <glyph glyph-name="underscore" unicode="_" horiz-adv-x="489" 
d="M28 0h433v-52h-433v52z" />
    <glyph glyph-name="uni00AD" unicode="&#xad;" horiz-adv-x="487" 
d="M76 265h336l-2 -52h-336z" />
    <glyph glyph-name="v" unicode="v" horiz-adv-x="521" 
d="M514 460l-209 -460h-89l-209 460h76l179 -394l179 394h73z" />
    <glyph glyph-name="w" unicode="w" horiz-adv-x="822" 
d="M811 460l-179 -460h-95l-125 360l-132 -360h-95l-169 460h74l144 -392l144 392h74l135 -392l153 392h71z" />
    <glyph glyph-name="x" unicode="x" horiz-adv-x="517" 
d="M113 460l146 -175l145 175h85l-189 -223l199 -237h-85l-157 187l-154 -187h-85l198 235l-188 225h85z" />
    <glyph glyph-name="y" unicode="y" horiz-adv-x="519" 
d="M507 460l-211 -464c-39 -86 -110 -252 -242 -252c-10 0 -15 1 -21 3l-13 66c4 -1 8 -3 21 -3c27 0 49 4 72 20c47 33 84 100 115 185l-230 445h83l183 -383l164 383h79z" />
    <glyph glyph-name="yacute" unicode="&#xfd;" horiz-adv-x="519" 
d="M204 549l-7 3l-6 20l3 7l180 101c23 -1 35 -16 35 -35c0 -5 0 -12 -3 -19zM507 460l-211 -464c-39 -86 -110 -252 -242 -252c-10 0 -15 1 -21 3l-13 66c4 -1 8 -3 21 -3c27 0 49 4 72 20c47 33 84 100 115 185l-230 445h83l183 -383l164 383h79z" />
    <glyph glyph-name="ydieresis" unicode="&#xff;" horiz-adv-x="519" 
d="M133 626c0 24 18 45 41 45c22 0 42 -21 42 -45c0 -25 -20 -44 -42 -44c-23 0 -41 19 -41 44zM290 626c0 24 18 45 41 45c22 0 42 -21 42 -45c0 -25 -20 -44 -42 -44c-23 0 -41 19 -41 44zM507 460l-211 -464c-39 -86 -110 -252 -242 -252c-10 0 -15 1 -21 3l-13 66
c4 -1 8 -3 21 -3c27 0 49 4 72 20c47 33 84 100 115 185l-230 445h83l183 -383l164 383h79z" />
    <glyph glyph-name="yen" unicode="&#xa5;" horiz-adv-x="649" 
d="M116 255h172v12l-27 41h-145v52h111l-196 300h89l209 -317l202 317h87l-197 -300h114v-52h-148l-24 -37v-16h172v-52h-172v-203h-75v203h-172v52z" />
    <glyph glyph-name="z" unicode="z" horiz-adv-x="417" 
d="M42 0v60l243 341h-233v59h314v-58l-245 -343h255v-59h-334z" />
    <glyph glyph-name="zcaron" unicode="&#x17e;" horiz-adv-x="417" 
d="M208 545h-8l-110 99l-3 6l6 20l7 3l104 -62l104 62l7 -3l6 -20l-3 -6zM42 0v60l243 341h-233v59h314v-58l-245 -343h255v-59h-334z" />
    <glyph glyph-name="zero" unicode="0" horiz-adv-x="649" 
d="M325 665c170 0 266 -156 266 -336c0 -176 -96 -341 -273 -341c-172 0 -259 155 -259 334c0 190 98 343 266 343zM320 54c132 0 189 120 189 272c0 162 -61 273 -187 273c-129 0 -180 -110 -180 -267c0 -183 66 -278 178 -278z" />
    <glyph glyph-name="uni2215" unicode="&#x2215;" horiz-adv-x="517" 
d="M523 691l-463 -715h-65l463 715h65z" />
    <glyph glyph-name="zeroinferior" unicode="&#x2080;" horiz-adv-x="421" 
d="M211 366c93 0 147 -85 147 -184c0 -97 -54 -187 -151 -187c-94 0 -143 84 -143 183c0 105 55 188 147 188zM208 40c67 0 95 62 95 140c0 83 -30 141 -94 141c-65 0 -89 -57 -89 -137c0 -96 33 -144 88 -144z" />
    <glyph glyph-name="oneinferior" unicode="&#x2081;" horiz-adv-x="257" 
d="M170 366v-366h-54v286l-57 -28l-13 42z" />
    <glyph glyph-name="twoinferior" unicode="&#x2082;" horiz-adv-x="354" 
d="M81 273l-11 44c31 28 69 49 108 49c70 0 109 -40 109 -97c0 -89 -90 -148 -171 -227h175v-42h-236v42c63 79 180 145 180 226c0 23 -11 58 -58 58c-35 0 -73 -24 -96 -53z" />
    <glyph glyph-name="threeinferior" unicode="&#x2083;" horiz-adv-x="358" 
d="M87 297l-11 39c27 17 55 30 87 30c71 0 112 -33 112 -94c0 -29 -26 -55 -57 -70c47 -14 76 -42 76 -90c0 -61 -42 -117 -141 -117c-46 0 -71 14 -101 38l12 40c28 -23 47 -38 87 -38c65 0 93 31 93 82c0 40 -21 65 -94 65h-12v34h15c49 0 72 23 72 61c0 29 -10 49 -58 49
c-36 0 -60 -13 -80 -29z" />
    <glyph glyph-name="fourinferior" unicode="&#x2084;" horiz-adv-x="332" 
d="M272 153v-42h-36v-111h-45v111h-150v42l147 213h48v-213h36zM92 153h99v154z" />
    <glyph glyph-name="onehalf" unicode="&#xbd;" horiz-adv-x="715" 
d="M161 665v-366h-54v286l-57 -28l-13 42zM589 691l-463 -715h-65l463 715h65zM460 271l-11 44c31 28 69 49 108 49c70 0 109 -40 109 -97c0 -89 -90 -148 -171 -227h175v-42h-236v42c63 79 180 145 180 226c0 23 -11 58 -58 58c-35 0 -73 -24 -96 -53z" />
    <glyph glyph-name="onethird" unicode="&#x2153;" horiz-adv-x="711" 
d="M463 297l-11 39c27 17 55 30 87 30c71 0 112 -33 112 -94c0 -29 -26 -55 -57 -70c47 -14 76 -42 76 -90c0 -61 -42 -117 -141 -117c-46 0 -71 14 -101 38l12 40c28 -23 47 -38 87 -38c65 0 93 31 93 82c0 40 -21 65 -94 65h-12v34h15c49 0 72 23 72 61
c0 29 -10 49 -58 49c-36 0 -60 -13 -80 -29zM589 691l-463 -715h-65l463 715h65zM161 665v-366h-54v286l-57 -28l-13 42z" />
    <glyph glyph-name="onequarter" unicode="&#xbc;" horiz-adv-x="711" 
d="M668 152v-42h-36v-111h-45v111h-150v42l147 213h48v-213h36zM488 152h99v154zM607 691l-463 -715h-65l463 715h65zM159 665v-366h-54v286l-57 -28l-13 42z" />
    <glyph glyph-name="threequarters" unicode="&#xbe;" horiz-adv-x="750" 
d="M72 595l-11 39c27 17 55 30 87 30c71 0 112 -33 112 -94c0 -29 -26 -55 -57 -70c47 -14 76 -42 76 -90c0 -61 -42 -117 -141 -117c-46 0 -71 14 -101 38l12 40c28 -23 47 -38 87 -38c65 0 93 31 93 82c0 40 -21 65 -94 65h-12v34h15c49 0 72 23 72 61c0 29 -10 49 -58 49
c-36 0 -60 -13 -80 -29zM707 152v-42h-36v-111h-45v111h-150v42l147 213h48v-213h36zM527 152h99v154zM660 691l-463 -715h-65l463 715h65z" />
    <glyph glyph-name="percent" unicode="%" horiz-adv-x="818" 
d="M186 665c93 0 147 -85 147 -184c0 -97 -54 -187 -151 -187c-94 0 -143 84 -143 183c0 105 55 188 147 188zM183 339c67 0 95 62 95 140c0 83 -30 141 -94 141c-65 0 -89 -57 -89 -137c0 -96 33 -144 88 -144zM672 691l-463 -715h-65l463 715h65zM634 364
c93 0 147 -85 147 -184c0 -97 -54 -187 -151 -187c-94 0 -143 84 -143 183c0 105 55 188 147 188zM631 38c67 0 95 62 95 140c0 83 -30 141 -94 141c-65 0 -89 -57 -89 -137c0 -96 33 -144 88 -144z" />
    <glyph glyph-name="perthousand" unicode="&#x2030;" horiz-adv-x="1178" 
d="M188 665c93 0 147 -85 147 -184c0 -97 -54 -187 -151 -187c-94 0 -143 84 -143 183c0 105 55 188 147 188zM185 339c67 0 95 62 95 140c0 83 -30 141 -94 141c-65 0 -89 -57 -89 -137c0 -96 33 -144 88 -144zM674 691l-463 -715h-65l463 715h65zM636 364
c93 0 147 -85 147 -184c0 -97 -54 -187 -151 -187c-94 0 -143 84 -143 183c0 105 55 188 147 188zM633 38c67 0 95 62 95 140c0 83 -30 141 -94 141c-65 0 -89 -57 -89 -137c0 -96 33 -144 88 -144zM996 364c93 0 147 -85 147 -184c0 -97 -54 -187 -151 -187
c-94 0 -143 84 -143 183c0 105 55 188 147 188zM993 38c67 0 95 62 95 140c0 83 -30 141 -94 141c-65 0 -89 -57 -89 -137c0 -96 33 -144 88 -144z" />
    <glyph glyph-name="twothirds" unicode="&#x2154;" horiz-adv-x="759" 
d="M71 572l-11 44c31 28 69 49 108 49c70 0 109 -40 109 -97c0 -89 -90 -148 -171 -227h175v-42h-236v42c63 79 180 145 180 226c0 23 -11 58 -58 58c-35 0 -73 -24 -96 -53zM659 691l-463 -715h-65l463 715h65zM508 297l-11 39c27 17 55 30 87 30c71 0 112 -33 112 -94
c0 -29 -26 -55 -57 -70c47 -14 76 -42 76 -90c0 -61 -42 -117 -141 -117c-46 0 -71 14 -101 38l12 40c28 -23 47 -38 87 -38c65 0 93 31 93 82c0 40 -21 65 -94 65h-12v34h15c49 0 72 23 72 61c0 29 -10 49 -58 49c-36 0 -60 -13 -80 -29z" />
    <glyph glyph-name="Dcroat" unicode="&#x110;" horiz-adv-x="706" 
d="M101 326h-87v44h87v290h5c63 2 143 5 213 5c94 0 175 -28 229 -75c70 -63 101 -160 101 -267c0 -180 -101 -335 -319 -335c-94 0 -169 6 -229 12v326zM176 370h175v-44h-175v-266c42 -4 94 -6 151 -6c158 0 239 95 239 277c0 160 -63 268 -241 268c-53 0 -107 -1 -149 -3
v-226z" />
    <glyph glyph-name="uni03BC" unicode="&#x3bc;" horiz-adv-x="552" 
d="M81 460h70v-304c0 -82 41 -109 96 -109c67 0 133 41 157 118v295h70v-460h-55l-8 86h-4c-17 -56 -81 -98 -170 -98c-43 0 -83 10 -111 35l-3 -13c-12 -51 -30 -100 -54 -150l-64 29c47 90 76 160 76 258v313z" />
    <glyph glyph-name="kgreenlandic" unicode="&#x138;" horiz-adv-x="474" 
d="M430 460l-164 -162l196 -298h-80l-165 250l-69 -69v-181h-70v460h70v-194l202 194h80z" />
    <glyph glyph-name="schwa" unicode="&#x259;" horiz-adv-x="517" 
d="M233 -12c-117 0 -184 62 -184 170c0 22 3 49 9 60h337v10c0 102 -52 194 -163 194c-64 0 -125 -32 -162 -58l-12 57c35 22 102 54 182 54c149 0 230 -113 230 -242c0 -132 -84 -245 -237 -245zM236 44c86 0 134 51 151 121h-272c-1 -6 -1 -12 -1 -18
c0 -68 58 -103 122 -103z" />
    <glyph glyph-name="minus" unicode="&#x2212;" horiz-adv-x="566" 
d="M76 265h414v-52h-414v52z" />
    <glyph glyph-name="IJ" unicode="&#x132;" horiz-adv-x="546" 
d="M174 660v-660h-75v660h75zM448 660v-559c0 -141 -55 -257 -174 -257l-14 55c105 0 113 112 113 203v558h75z" />
    <glyph glyph-name="ij" unicode="&#x133;" horiz-adv-x="454" 
d="M148 460v-460h-70v460h70zM63 628c0 27 22 52 50 52c27 0 52 -25 52 -52c0 -28 -25 -50 -52 -50c-28 0 -50 22 -50 50zM376 460v-463c0 -137 -51 -255 -153 -255c-9 0 -18 1 -22 3l-16 58c4 -2 13 -3 22 -3c91 0 99 115 99 198v462h70zM291 628c0 27 22 52 50 52
c27 0 52 -25 52 -52c0 -28 -25 -50 -52 -50c-28 0 -50 22 -50 50z" />
    <glyph glyph-name="CR" unicode="&#xd;" horiz-adv-x="245" 
 />
    <glyph glyph-name="uni00A0" unicode="&#xa0;" horiz-adv-x="245" 
 />
    <glyph glyph-name="NULL" horiz-adv-x="0" 
 />
    <glyph glyph-name="NULL" horiz-adv-x="0" 
 />
    </font>
</defs>
</svg>
