<?xml version="1.0" standalone="no"?>
<!DOCTYPE svg PUBLIC "-//W3C//DTD SVG 1.1//EN" "http://www.w3.org/Graphics/SVG/1.1/DTD/svg11.dtd" >
<svg xmlns="http://www.w3.org/2000/svg" xmlns:xlink="http://www.w3.org/1999/xlink" version="1.1">
<metadata>
Created by FontForge 20161116 at Thu Feb  9 19:25:33 2012
 By Jimmy Wärting
Quattrocento Sans is a Classic, Elegant &#38; Sober typeface.Warm, readable and not intrusive. It's the perfect sans-serif companion for Quattrocento.
</metadata>
<defs>
<font id="QuattrocentoSans-Bold" horiz-adv-x="539" >
  <font-face 
    font-family="Quattrocento Sans"
    font-weight="700"
    font-stretch="normal"
    units-per-em="1000"
    panose-1="2 11 8 2 5 0 0 2 0 3"
    ascent="800"
    descent="-200"
    x-height="460"
    cap-height="660"
    bbox="-38 -260 1162 849"
    underline-thickness="48"
    underline-position="-95"
    stemh="98"
    stemv="110"
    unicode-range="U+000D-FB02"
  />
<missing-glyph horiz-adv-x="266" 
d="M50 243c0 44 37 84 83 84c43 0 83 -40 83 -84c0 -47 -40 -82 -83 -82c-46 0 -83 35 -83 82z" />
    <glyph glyph-name="fi" unicode="fi" horiz-adv-x="525" 
d="M91 0v393h-57v57l57 9c0 151 21 209 42 237c26 35 72 49 124 49c31 0 96 -6 161 -50l-45 -81c-36 23 -72 52 -124 52c-34 0 -48 -28 -48 -140v-66h88v-67h-88v-393h-110zM457 460v-460h-110v460h110z" />
    <glyph glyph-name="fl" unicode="fl" horiz-adv-x="536" 
d="M461 740v-740h-110v644c-30 11 -62 22 -102 22c-34 0 -48 -28 -48 -140v-66h88v-67h-88v-393h-110v393h-57v57l57 9c0 151 21 209 42 237c26 35 72 49 124 49c30 0 97 -6 161 -29z" />
    <glyph glyph-name=".notdef" horiz-adv-x="266" 
d="M50 243c0 44 37 84 83 84c43 0 83 -40 83 -84c0 -47 -40 -82 -83 -82c-46 0 -83 35 -83 82z" />
    <glyph glyph-name="A" unicode="A" horiz-adv-x="628" 
d="M357 660l282 -660h-125l-75 192h-249l-68 -192h-120l256 660h99zM308 525l-86 -243h181z" />
    <glyph glyph-name="AE" unicode="&#xc6;" horiz-adv-x="757" 
d="M717 102v-102h-331v190h-177l-101 -190h-122l352 660h359v-102h-202v-157h135v-102h-135v-197h222zM262 290h124v234z" />
    <glyph glyph-name="Aacute" unicode="&#xc1;" horiz-adv-x="628" 
d="M357 660l282 -660h-125l-75 192h-249l-68 -192h-120l256 660h99zM308 525l-86 -243h181zM225 699l-8 3l-15 36l3 7l180 101c4 2 7 3 10 3c18 0 30 -29 30 -52c0 -14 -4 -26 -13 -29z" />
    <glyph glyph-name="Acircumflex" unicode="&#xc2;" horiz-adv-x="628" 
d="M357 660l282 -660h-125l-75 192h-249l-68 -192h-120l256 660h99zM308 525l-86 -243h181zM315 842h8l110 -99l3 -7l-16 -29l-7 -3l-94 41l-94 -41l-7 3l-16 29l3 7z" />
    <glyph glyph-name="Adieresis" unicode="&#xc4;" horiz-adv-x="628" 
d="M357 660l282 -660h-125l-75 192h-249l-68 -192h-120l256 660h99zM308 525l-86 -243h181zM192 783c0 30 26 59 57 59c30 0 59 -29 59 -59c0 -31 -29 -57 -59 -57c-31 0 -57 26 -57 57zM328 783c0 30 26 59 57 59c30 0 59 -29 59 -59c0 -31 -29 -57 -59 -57
c-31 0 -57 26 -57 57z" />
    <glyph glyph-name="Agrave" unicode="&#xc0;" horiz-adv-x="628" 
d="M357 661l282 -660h-125l-75 192h-249l-68 -192h-120l256 660h99zM308 526l-86 -243h181zM413 701l-8 -3l-187 69c-9 3 -13 15 -13 29c0 23 12 52 30 52c3 0 6 -1 10 -3l180 -101l3 -7z" />
    <glyph glyph-name="Aring" unicode="&#xc5;" horiz-adv-x="635" 
d="M311 792c58 0 96 -43 96 -89c0 -29 -16 -54 -39 -68l279 -635h-129l-75 202h-249l-68 -202h-124l253 635c-25 14 -41 41 -41 70c0 46 39 87 97 87zM312 525l-86 -233h181zM312 664c20 0 35 19 35 39c0 21 -16 39 -37 39c-23 0 -37 -16 -37 -36c0 -22 18 -42 39 -42z" />
    <glyph glyph-name="Atilde" unicode="&#xc3;" horiz-adv-x="628" 
d="M357 660l282 -660h-125l-75 192h-249l-68 -192h-120l256 660h99zM308 525l-86 -243h181zM473 818c-8 -43 -32 -92 -90 -92c-31 0 -87 14 -133 14c-30 0 -57 -6 -75 -25l-13 23c15 49 32 91 98 91c38 0 89 -14 125 -14c24 0 49 6 76 26z" />
    <glyph glyph-name="B" unicode="B" horiz-adv-x="570" 
d="M468 493c0 -53 -22 -98 -68 -128c80 -27 128 -85 128 -172c0 -111 -81 -205 -246 -205c-73 0 -147 6 -194 12v660c30 2 113 5 161 5c141 0 219 -59 219 -172zM277 311c-25 0 -51 -1 -74 -2v-223c24 -2 49 -2 76 -2c81 0 129 41 129 117c0 67 -39 110 -131 110zM268 571
c-26 0 -47 -2 -65 -5v-171c16 -1 33 -1 50 -1c58 0 94 43 94 107c0 40 -29 70 -79 70z" />
    <glyph glyph-name="C" unicode="C" horiz-adv-x="628" 
d="M581 622l-29 -104c-42 29 -103 49 -178 49c-144 0 -202 -95 -202 -236c0 -161 72 -245 200 -245c79 0 148 27 191 62l30 -99c-53 -32 -130 -61 -224 -61c-218 0 -319 155 -319 335c0 189 112 342 330 342c72 0 149 -17 201 -43z" />
    <glyph glyph-name="Ccedilla" unicode="&#xc7;" horiz-adv-x="629" 
d="M259 -199l-1 6l28 48h7c15 -6 40 -12 63 -12s44 7 44 30c0 24 -20 31 -42 31c-16 0 -34 -3 -48 -7l-19 26l44 67c-194 15 -284 163 -284 333c0 189 112 342 330 342c72 0 149 -17 201 -43l-29 -104c-42 29 -103 49 -178 49c-144 0 -202 -95 -202 -236
c0 -161 72 -245 200 -245c79 0 148 27 191 62l30 -99c-50 -30 -120 -57 -205 -60l-18 -30c11 3 21 4 29 4c46 0 79 -35 79 -82c0 -52 -53 -99 -125 -99c-34 0 -68 9 -95 19z" />
    <glyph glyph-name="D" unicode="D" horiz-adv-x="707" 
d="M88 0v660c36 3 162 5 204 5c128 0 209 -28 263 -75c70 -61 101 -160 101 -274c0 -174 -73 -327 -383 -327c-56 0 -123 4 -185 11zM301 84c162 0 232 72 232 247c0 157 -56 238 -243 238c-18 0 -52 0 -87 -1v-480c37 -3 74 -4 98 -4z" />
    <glyph glyph-name="E" unicode="E" horiz-adv-x="529" 
d="M403 400v-100h-200v-200h287v-100h-402v660h382v-100h-267v-160h200z" />
    <glyph glyph-name="Eacute" unicode="&#xc9;" horiz-adv-x="529" 
d="M403 400v-100h-200v-200h287v-100h-402v660h382v-100h-267v-160h200zM209 698l-8 3l-15 36l3 7l180 101c4 2 7 3 10 3c18 0 30 -29 30 -52c0 -14 -4 -26 -13 -29z" />
    <glyph glyph-name="Ecircumflex" unicode="&#xca;" horiz-adv-x="529" 
d="M403 400v-100h-200v-200h287v-100h-402v660h382v-100h-267v-160h200zM292 842h8l110 -99l3 -7l-16 -29l-7 -3l-94 41l-94 -41l-7 3l-16 29l3 7z" />
    <glyph glyph-name="Edieresis" unicode="&#xcb;" horiz-adv-x="529" 
d="M403 400v-100h-200v-200h287v-100h-402v660h382v-100h-267v-160h200zM161 784c0 30 26 59 57 59c30 0 59 -29 59 -59c0 -31 -29 -57 -59 -57c-31 0 -57 26 -57 57zM297 784c0 30 26 59 57 59c30 0 59 -29 59 -59c0 -31 -29 -57 -59 -57c-31 0 -57 26 -57 57z" />
    <glyph glyph-name="Egrave" unicode="&#xc8;" horiz-adv-x="529" 
d="M403 400v-100h-200v-200h287v-100h-402v660h382v-100h-267v-160h200zM382 701l-8 -3l-187 69c-9 3 -13 15 -13 29c0 23 12 52 30 52c3 0 6 -1 10 -3l180 -101l3 -7z" />
    <glyph glyph-name="Eth" unicode="&#xd0;" horiz-adv-x="714" 
d="M94 385v275c36 3 162 5 204 5c128 0 209 -28 263 -75c70 -61 101 -160 101 -274c0 -174 -73 -327 -383 -327c-56 0 -123 4 -185 11v311h-74v74h74zM209 385h148v-74h-148v-223c37 -3 74 -4 98 -4c162 0 232 72 232 247c0 157 -56 238 -243 238c-18 0 -52 0 -87 -1v-183z
" />
    <glyph glyph-name="Euro" unicode="&#x20ac;" horiz-adv-x="616" 
d="M42 442h90c32 130 122 223 262 223c60 0 128 -17 171 -43l-32 -111c-33 32 -82 56 -144 56c-79 0 -121 -48 -139 -125h211v-82h-221v-53h221v-82h-212c19 -92 64 -139 134 -139c68 0 129 27 164 64l30 -101c-47 -32 -112 -61 -194 -61c-146 0 -230 102 -256 237h-85v82
h76v16c0 12 0 25 1 37h-77v82z" />
    <glyph glyph-name="F" unicode="F" horiz-adv-x="487" 
d="M392 400v-100h-189v-300h-115v660h377v-100h-262v-160h189z" />
    <glyph glyph-name="G" unicode="G" horiz-adv-x="657" 
d="M600 272v-217c-59 -40 -138 -67 -230 -67c-220 0 -320 155 -320 335c0 189 111 342 332 342c74 0 152 -17 209 -43l-32 -104c-45 26 -105 49 -181 49c-152 0 -206 -91 -206 -237c0 -164 68 -244 207 -244c49 0 73 10 106 20v166h115z" />
    <glyph glyph-name="H" unicode="H" horiz-adv-x="722" 
d="M634 660v-660h-115v290h-316v-290h-115v660h115v-270h316v270h115z" />
    <glyph glyph-name="I" unicode="I" horiz-adv-x="291" 
d="M203 660v-660h-115v660h115z" />
    <glyph glyph-name="Iacute" unicode="&#xcd;" horiz-adv-x="291" 
d="M88 0v660h115v-660h-115zM69 698l-8 3l-15 36l3 7l180 101c4 2 7 3 10 3c18 0 30 -29 30 -52c0 -14 -4 -26 -13 -29z" />
    <glyph glyph-name="Icircumflex" unicode="&#xce;" horiz-adv-x="291" 
d="M203 660v-660h-115v660h115zM139 842h8l110 -99l3 -7l-16 -29l-7 -3l-94 41l-94 -41l-7 3l-16 29l3 7z" />
    <glyph glyph-name="Idieresis" unicode="&#xcf;" horiz-adv-x="291" 
d="M203 660v-660h-115v660h115zM21 783c0 30 26 59 57 59c30 0 59 -29 59 -59c0 -31 -29 -57 -59 -57c-31 0 -57 26 -57 57zM157 783c0 30 26 59 57 59c30 0 59 -29 59 -59c0 -31 -29 -57 -59 -57c-31 0 -57 26 -57 57z" />
    <glyph glyph-name="Igrave" unicode="&#xcc;" horiz-adv-x="291" 
d="M203 660v-660h-115v660h115zM230 701l-8 -3l-187 69c-9 3 -13 15 -13 29c0 23 12 52 30 52c3 0 6 -1 10 -3l180 -101l3 -7z" />
    <glyph glyph-name="J" unicode="J" horiz-adv-x="290" 
d="M203 660v-559c0 -141 -61 -257 -194 -257l-22 87c94 0 101 94 101 171v558h115z" />
    <glyph glyph-name="K" unicode="K" horiz-adv-x="609" 
d="M203 250v-250h-115v660h115v-288c37 35 72 71 102 105c56 63 102 125 135 183h126c-58 -80 -108 -142 -172 -214c-24 -27 -49 -55 -76 -83l295 -363h-133l-235 289z" />
    <glyph glyph-name="L" unicode="L" horiz-adv-x="497" 
d="M203 660v-560h275v-100h-390v660h115z" />
    <glyph glyph-name="M" unicode="M" horiz-adv-x="882" 
d="M219 660l225 -504l219 504h131v-660h-114v435l-190 -435h-92l-195 435v-435h-115v660h131z" />
    <glyph glyph-name="N" unicode="N" horiz-adv-x="722" 
d="M229 660l290 -485v485h115v-660h-141l-290 484v-484h-115v660h141z" />
    <glyph glyph-name="Ntilde" unicode="&#xd1;" horiz-adv-x="722" 
d="M493 0l-290 484v-484h-115v660h141l290 -485v485h115v-660h-141zM500 818c-8 -43 -32 -92 -90 -92c-31 0 -87 14 -133 14c-30 0 -57 -6 -75 -25l-13 23c15 49 32 91 98 91c38 0 89 -14 125 -14c24 0 49 6 76 26z" />
    <glyph glyph-name="O" unicode="O" horiz-adv-x="742" 
d="M371 665c208 0 322 -156 322 -336c0 -176 -110 -341 -329 -341c-212 0 -315 155 -315 334c0 190 116 343 322 343zM366 86c146 0 205 106 205 240c0 143 -63 241 -203 241c-142 0 -196 -97 -196 -235c0 -162 69 -246 194 -246z" />
    <glyph glyph-name="OE" unicode="&#x152;" horiz-adv-x="845" 
d="M806 100v-100h-346c-29 -8 -61 -12 -96 -12c-212 0 -315 155 -315 334c0 190 116 343 322 343c25 0 49 -2 72 -5h343v-100h-248v-160h181v-100h-181v-200h268zM366 84c21 0 40 3 57 9v467c-17 6 -35 9 -55 9c-142 0 -196 -98 -196 -237c0 -163 69 -248 194 -248z" />
    <glyph glyph-name="Oacute" unicode="&#xd3;" horiz-adv-x="742" 
d="M371 665c208 0 322 -156 322 -336c0 -176 -110 -341 -329 -341c-212 0 -315 155 -315 334c0 190 116 343 322 343zM366 86c146 0 205 106 205 240c0 143 -63 241 -203 241c-142 0 -196 -97 -196 -235c0 -162 69 -246 194 -246zM321 698l-8 3l-15 36l3 7l180 101
c4 2 7 3 10 3c18 0 30 -29 30 -52c0 -14 -4 -26 -13 -29z" />
    <glyph glyph-name="Ocircumflex" unicode="&#xd4;" horiz-adv-x="742" 
d="M371 665c208 0 322 -156 322 -336c0 -176 -110 -341 -329 -341c-212 0 -315 155 -315 334c0 190 116 343 322 343zM366 86c146 0 205 106 205 240c0 143 -63 241 -203 241c-142 0 -196 -97 -196 -235c0 -162 69 -246 194 -246zM377 842h8l110 -99l3 -7l-16 -29l-7 -3
l-94 41l-94 -41l-7 3l-16 29l3 7z" />
    <glyph glyph-name="Odieresis" unicode="&#xd6;" horiz-adv-x="742" 
d="M371 665c208 0 322 -156 322 -336c0 -176 -110 -341 -329 -341c-212 0 -315 155 -315 334c0 190 116 343 322 343zM366 86c146 0 205 106 205 240c0 143 -63 241 -203 241c-142 0 -196 -97 -196 -235c0 -162 69 -246 194 -246zM246 783c0 30 26 59 57 59
c30 0 59 -29 59 -59c0 -31 -29 -57 -59 -57c-31 0 -57 26 -57 57zM382 783c0 30 26 59 57 59c30 0 59 -29 59 -59c0 -31 -29 -57 -59 -57c-31 0 -57 26 -57 57z" />
    <glyph glyph-name="Ograve" unicode="&#xd2;" horiz-adv-x="742" 
d="M371 665c208 0 322 -156 322 -336c0 -176 -110 -341 -329 -341c-212 0 -315 155 -315 334c0 190 116 343 322 343zM366 86c146 0 205 106 205 240c0 143 -63 241 -203 241c-142 0 -196 -97 -196 -235c0 -162 69 -246 194 -246zM438 701l-8 -3l-187 69c-9 3 -13 15 -13 29
c0 23 12 52 30 52c3 0 6 -1 10 -3l180 -101l3 -7z" />
    <glyph glyph-name="Oslash" unicode="&#xd8;" horiz-adv-x="743" 
d="M372 665c67 0 125 -17 172 -45l67 79l81 -62l-72 -84c49 -61 74 -140 74 -224c0 -176 -110 -341 -329 -341c-73 0 -134 18 -181 50l-73 -86l-76 68l76 90c-41 58 -61 133 -61 212c0 190 116 343 322 343zM367 86c146 0 205 106 205 240c0 53 -9 100 -27 138l-292 -345
c30 -22 68 -33 114 -33zM173 332c0 -50 6 -92 19 -127l284 336c-29 17 -64 26 -107 26c-142 0 -196 -97 -196 -235z" />
    <glyph glyph-name="Otilde" unicode="&#xd5;" horiz-adv-x="742" 
d="M371 665c208 0 322 -156 322 -336c0 -176 -110 -341 -329 -341c-212 0 -315 155 -315 334c0 190 116 343 322 343zM366 86c146 0 205 106 205 240c0 143 -63 241 -203 241c-142 0 -196 -97 -196 -235c0 -162 69 -246 194 -246zM527 818c-8 -43 -32 -92 -90 -92
c-31 0 -87 14 -133 14c-30 0 -57 -6 -75 -25l-13 23c15 49 32 91 98 91c38 0 89 -14 125 -14c24 0 49 6 76 26z" />
    <glyph glyph-name="P" unicode="P" horiz-adv-x="531" 
d="M268 248c-23 0 -45 0 -65 1v-249h-115v660c40 3 108 5 159 5c150 0 250 -74 250 -212c0 -111 -73 -205 -229 -205zM263 569c-21 0 -41 0 -60 -1v-223c19 -1 40 -1 62 -1c72 0 109 41 109 117c0 64 -29 108 -111 108z" />
    <glyph glyph-name="Q" unicode="Q" horiz-adv-x="745" 
d="M373 665c208 0 322 -156 322 -336c0 -171 -104 -331 -310 -340c97 -11 172 -73 272 -73c29 0 61 6 97 20l-26 -98c-24 -9 -48 -12 -70 -12c-111 0 -205 85 -304 85c-29 0 -78 -8 -119 -39l-20 72c36 28 81 42 119 45c-190 14 -283 163 -283 333c0 190 116 343 322 343z
M370 86c144 0 203 107 203 243c0 140 -63 238 -204 238s-195 -97 -195 -238c0 -159 69 -243 196 -243z" />
    <glyph glyph-name="R" unicode="R" horiz-adv-x="606" 
d="M250 282c-14 0 -30 0 -47 1v-283h-115v660c42 3 118 5 147 5c169 0 262 -67 262 -190c0 -78 -36 -146 -126 -176l242 -299h-133zM245 569c-11 0 -26 0 -42 -1v-190h62c72 0 110 38 110 104c0 59 -30 87 -130 87z" />
    <glyph glyph-name="S" unicode="S" horiz-adv-x="542" 
d="M172 501c0 -56 52 -75 129 -102c96 -34 200 -81 200 -218c0 -144 -114 -193 -237 -193c-87 0 -168 25 -222 55l30 108c50 -38 112 -67 191 -67c85 0 122 33 122 83c0 77 -86 107 -135 123c-84 28 -189 65 -189 202c0 128 93 173 212 173c73 0 147 -17 193 -38l-27 -106
c-47 31 -117 49 -170 49c-59 0 -97 -22 -97 -69z" />
    <glyph glyph-name="Scaron" unicode="&#x160;" horiz-adv-x="542" 
d="M172 501c0 -56 52 -75 129 -102c96 -34 200 -81 200 -218c0 -144 -114 -193 -237 -193c-87 0 -168 25 -222 55l30 108c50 -38 112 -67 191 -67c85 0 122 33 122 83c0 77 -86 107 -135 123c-84 28 -189 65 -189 202c0 128 93 173 212 173c73 0 147 -17 193 -38l-27 -106
c-47 31 -117 49 -170 49c-59 0 -97 -22 -97 -69zM277 705h-8l-110 99l-3 7l16 29l7 3l94 -41l94 41l7 -3l16 -29l-3 -7z" />
    <glyph glyph-name="T" unicode="T" 
d="M518 660v-100h-191v-560h-115v560h-191v100h497z" />
    <glyph glyph-name="Thorn" unicode="&#xde;" horiz-adv-x="532" 
d="M203 660v-110h44c150 0 250 -74 250 -212c0 -111 -73 -205 -229 -205c-23 0 -45 0 -65 1v-134h-115v660h115zM263 454c-21 0 -41 0 -60 -1v-223c19 -1 40 -1 62 -1c72 0 109 41 109 117c0 64 -29 108 -111 108z" />
    <glyph glyph-name="U" unicode="U" horiz-adv-x="705" 
d="M196 660v-404c0 -121 60 -170 159 -170c100 0 160 49 160 170v404h110v-428c0 -131 -83 -243 -276 -243s-268 112 -268 243v428h115z" />
    <glyph glyph-name="Uacute" unicode="&#xda;" horiz-adv-x="705" 
d="M196 660v-404c0 -121 60 -170 159 -170c100 0 160 49 160 170v404h110v-428c0 -131 -83 -243 -276 -243s-268 112 -268 243v428h115zM280 698l-8 3l-15 36l3 7l180 101c4 2 7 3 10 3c18 0 30 -29 30 -52c0 -14 -4 -26 -13 -29z" />
    <glyph glyph-name="Ucircumflex" unicode="&#xdb;" horiz-adv-x="705" 
d="M196 660v-404c0 -121 60 -170 159 -170c100 0 160 49 160 170v404h110v-428c0 -131 -83 -243 -276 -243s-268 112 -268 243v428h115zM345 842h8l110 -99l3 -7l-16 -29l-7 -3l-94 41l-94 -41l-7 3l-16 29l3 7z" />
    <glyph glyph-name="Udieresis" unicode="&#xdc;" horiz-adv-x="705" 
d="M196 660v-404c0 -121 60 -170 159 -170c100 0 160 49 160 170v404h110v-428c0 -131 -83 -243 -276 -243s-268 112 -268 243v428h115zM239 783c0 30 26 59 57 59c30 0 59 -29 59 -59c0 -31 -29 -57 -59 -57c-31 0 -57 26 -57 57zM375 783c0 30 26 59 57 59
c30 0 59 -29 59 -59c0 -31 -29 -57 -59 -57c-31 0 -57 26 -57 57z" />
    <glyph glyph-name="Ugrave" unicode="&#xd9;" horiz-adv-x="705" 
d="M196 660v-404c0 -121 60 -170 159 -170c100 0 160 49 160 170v404h110v-428c0 -131 -83 -243 -276 -243s-268 112 -268 243v428h115zM436 701l-8 -3l-187 69c-9 3 -13 15 -13 29c0 23 12 52 30 52c3 0 6 -1 10 -3l180 -101l3 -7z" />
    <glyph glyph-name="V" unicode="V" horiz-adv-x="634" 
d="M278 0l-290 660h125l210 -520l190 520h120l-264 -660h-91z" />
    <glyph glyph-name="W" unicode="W" horiz-adv-x="1042" 
d="M1041 660l-245 -660h-95l-180 502l-179 -502h-95l-246 660h125l169 -512l170 512h113l169 -512l169 512h125z" />
    <glyph glyph-name="X" unicode="X" horiz-adv-x="638" 
d="M497 0l-181 267l-179 -267h-126l244 340l-229 320h129l167 -258l165 258h126l-230 -321l243 -339h-129z" />
    <glyph glyph-name="Y" unicode="Y" horiz-adv-x="564" 
d="M225 267l-237 393h129l169 -299l162 299h127l-235 -389v-271h-115v267z" />
    <glyph glyph-name="Yacute" unicode="&#xdd;" horiz-adv-x="564" 
d="M225 267l-237 393h129l169 -299l162 299h127l-235 -389v-271h-115v267zM234 698l-8 3l-15 36l3 7l180 101c4 2 7 3 10 3c18 0 30 -29 30 -52c0 -14 -4 -26 -13 -29z" />
    <glyph glyph-name="Ydieresis" unicode="&#x178;" horiz-adv-x="564" 
d="M160 783c0 30 26 59 57 59c30 0 59 -29 59 -59c0 -31 -29 -57 -59 -57c-31 0 -57 26 -57 57zM296 783c0 30 26 59 57 59c30 0 59 -29 59 -59c0 -31 -29 -57 -59 -57c-31 0 -57 26 -57 57zM225 267l-237 393h129l169 -299l162 299h127l-235 -389v-271h-115v267z" />
    <glyph glyph-name="Z" unicode="Z" horiz-adv-x="554" 
d="M511 100v-100h-468v100l328 460h-313v100h438v-100l-328 -460h343z" />
    <glyph glyph-name="Zcaron" unicode="&#x17d;" horiz-adv-x="554" 
d="M278 705h-8l-110 99l-3 7l16 29l7 3l94 -41l94 41l7 -3l16 -29l-3 -7zM511 100v-100h-468v100l328 460h-313v100h438v-100l-328 -460h343z" />
    <glyph glyph-name="a" unicode="a" horiz-adv-x="501" 
d="M437 0h-88l-8 63h-4c-36 -45 -104 -75 -168 -75c-84 0 -135 54 -135 133c0 110 98 175 250 175h43v15c0 26 -8 45 -25 57s-44 18 -81 18c-51 0 -93 -11 -132 -33l-21 83c45 26 98 39 162 39c66 0 118 -14 152 -41c32 -25 55 -66 55 -121v-313zM212 77c43 0 90 23 115 57
v91h-19c-109 0 -157 -27 -157 -88c0 -41 21 -60 61 -60z" />
    <glyph glyph-name="aacute" unicode="&#xe1;" horiz-adv-x="501" 
d="M437 0h-88l-8 63h-4c-36 -45 -104 -75 -168 -75c-84 0 -135 54 -135 133c0 110 98 175 250 175h43v15c0 26 -8 45 -25 57s-44 18 -81 18c-51 0 -93 -11 -132 -33l-21 83c45 26 98 39 162 39c66 0 118 -14 152 -41c32 -25 55 -66 55 -121v-313zM212 77c43 0 90 23 115 57
v91h-19c-109 0 -157 -27 -157 -88c0 -41 21 -60 61 -60zM202 532l-8 3l-15 36l3 7l180 101c4 2 7 3 10 3c18 0 30 -29 30 -52c0 -14 -4 -26 -13 -29z" />
    <glyph glyph-name="acircumflex" unicode="&#xe2;" horiz-adv-x="501" 
d="M437 0h-88l-8 63h-4c-36 -45 -104 -75 -168 -75c-84 0 -135 54 -135 133c0 110 98 175 250 175h43v15c0 26 -8 45 -25 57s-44 18 -81 18c-51 0 -93 -11 -132 -33l-21 83c45 26 98 39 162 39c66 0 118 -14 152 -41c32 -25 55 -66 55 -121v-313zM212 77c43 0 90 23 115 57
v91h-19c-109 0 -157 -27 -157 -88c0 -41 21 -60 61 -60zM238 673h8l110 -99l3 -7l-16 -29l-7 -3l-94 41l-94 -41l-7 3l-16 29l3 7z" />
    <glyph glyph-name="acute" unicode="&#xb4;" horiz-adv-x="219" 
d="M23 533l-8 3l-15 36l3 7l180 101c4 2 7 3 10 3c18 0 30 -29 30 -52c0 -14 -4 -26 -13 -29z" />
    <glyph glyph-name="adieresis" unicode="&#xe4;" horiz-adv-x="501" 
d="M437 0h-88l-8 63h-4c-36 -45 -104 -75 -168 -75c-84 0 -135 54 -135 133c0 110 98 175 250 175h43v15c0 26 -8 45 -25 57s-44 18 -81 18c-51 0 -93 -11 -132 -33l-21 83c45 26 98 39 162 39c66 0 118 -14 152 -41c32 -25 55 -66 55 -121v-313zM212 77c43 0 90 23 115 57
v91h-19c-109 0 -157 -27 -157 -88c0 -41 21 -60 61 -60zM126 612c0 30 26 59 57 59c30 0 59 -29 59 -59c0 -31 -29 -57 -59 -57c-31 0 -57 26 -57 57zM262 612c0 30 26 59 57 59c30 0 59 -29 59 -59c0 -31 -29 -57 -59 -57c-31 0 -57 26 -57 57z" />
    <glyph glyph-name="ae" unicode="&#xe6;" horiz-adv-x="802" 
d="M575 475c117 0 184 -62 184 -170c0 -29 -8 -70 -19 -85h-291c5 -80 49 -145 136 -145c49 0 110 21 149 49l18 -82c-35 -22 -104 -54 -184 -54c-82 0 -144 34 -182 86c-56 -63 -134 -86 -213 -86c-92 0 -139 58 -139 133c0 152 165 175 251 175h42v9c0 36 -11 53 -31 66
c-17 11 -34 15 -65 15c-58 0 -100 -13 -142 -33l-21 83c48 26 104 39 169 39c59 0 130 -14 169 -65c40 40 97 65 169 65zM212 77c38 0 88 20 115 57v93h-7c-78 0 -169 -10 -169 -97c0 -34 24 -53 61 -53zM572 389c-59 0 -98 -38 -114 -91h191c1 6 1 12 1 18
c0 48 -37 73 -78 73z" />
    <glyph glyph-name="agrave" unicode="&#xe0;" horiz-adv-x="501" 
d="M437 0h-88l-8 63h-4c-36 -45 -104 -75 -168 -75c-84 0 -135 54 -135 133c0 110 98 175 250 175h43v15c0 26 -8 45 -25 57s-44 18 -81 18c-51 0 -93 -11 -132 -33l-21 83c45 26 98 39 162 39c66 0 118 -14 152 -41c32 -25 55 -66 55 -121v-313zM212 77c43 0 90 23 115 57
v91h-19c-109 0 -157 -27 -157 -88c0 -41 21 -60 61 -60zM313 534l-8 -3l-187 69c-9 3 -13 15 -13 29c0 23 12 52 30 52c3 0 6 -1 10 -3l180 -101l3 -7z" />
    <glyph glyph-name="ampersand" unicode="&#x26;" horiz-adv-x="705" 
d="M378 405l290 37v-77l-144 -11c21 -37 32 -78 32 -119c0 -33 -7 -65 -20 -95l136 -140h-124l-63 65c-47 -47 -116 -77 -203 -77c-150 0 -229 91 -229 188c0 73 45 156 134 194c-39 45 -61 88 -61 146c0 98 67 149 148 149c45 0 98 -16 143 -44l-28 -96
c-24 21 -73 47 -107 47c-32 0 -57 -22 -57 -64c0 -43 27 -74 62 -110l172 -178c1 7 2 15 2 23c0 31 -9 67 -34 103l-49 -3v62zM291 84c53 0 97 19 126 50l-170 173c-51 -14 -78 -66 -78 -117c0 -72 52 -106 122 -106z" />
    <glyph glyph-name="aring" unicode="&#xe5;" horiz-adv-x="501" 
d="M256 693c58 0 93 -43 93 -85c0 -40 -33 -80 -92 -80c-63 0 -93 43 -93 82c0 42 35 83 92 83zM257 572c21 0 34 19 34 36c0 19 -14 41 -36 41s-34 -20 -34 -38c0 -19 15 -39 36 -39zM437 0h-88l-8 63h-4c-36 -45 -104 -75 -168 -75c-84 0 -135 54 -135 133
c0 110 98 175 250 175h43v15c0 26 -8 45 -25 57s-44 18 -81 18c-51 0 -93 -11 -132 -33l-21 83c45 26 98 39 162 39c66 0 118 -14 152 -41c32 -25 55 -66 55 -121v-313zM212 77c43 0 90 23 115 57v91h-19c-109 0 -157 -27 -157 -88c0 -41 21 -60 61 -60z" />
    <glyph glyph-name="asciicircum" unicode="^" horiz-adv-x="348" 
d="M170 673h8l110 -99l3 -7l-16 -29l-7 -3l-94 41l-94 -41l-7 3l-16 29l3 7z" />
    <glyph glyph-name="asciitilde" unicode="~" horiz-adv-x="474" 
d="M411 288c0 -12 -24 -92 -91 -92c-22 0 -149 9 -186 9c-31 0 -44 -6 -57 -22l-13 19c0 21 29 92 95 92c24 0 121 -9 173 -9c25 0 50 2 67 23z" />
    <glyph glyph-name="asterisk" unicode="*" horiz-adv-x="440" 
d="M271 702l-27 -124l92 87l52 -89l-120 -38l120 -38l-52 -89l-93 86l28 -123h-102l27 123l-92 -86l-52 89l119 38l-119 38l52 89l92 -87l-27 124h102z" />
    <glyph glyph-name="at" unicode="@" horiz-adv-x="721" 
d="M399 248l12 72c-7 3 -14 4 -20 4c-52 0 -83 -81 -83 -133c0 -29 9 -41 22 -41c24 0 60 43 69 98zM571 57v-80c-26 -25 -119 -78 -229 -78c-158 0 -292 110 -292 281c0 152 107 368 351 368c189 0 273 -129 273 -245c0 -122 -92 -229 -200 -229c-57 0 -77 30 -77 73
c-22 -45 -67 -74 -101 -74c-40 0 -86 41 -86 120c0 119 102 196 189 196c35 0 87 -12 107 -39l-31 -142c-3 -13 -4 -29 -4 -39s1 -24 20 -24c46 0 82 77 82 151c0 86 -49 175 -173 175c-162 0 -247 -153 -247 -291c0 -144 92 -203 203 -203c105 0 185 53 215 80z" />
    <glyph glyph-name="atilde" unicode="&#xe3;" horiz-adv-x="501" 
d="M437 0h-88l-8 63h-4c-36 -45 -104 -75 -168 -75c-84 0 -135 54 -135 133c0 110 98 175 250 175h43v15c0 26 -8 45 -25 57s-44 18 -81 18c-51 0 -93 -11 -132 -33l-21 83c45 26 98 39 162 39c66 0 118 -14 152 -41c32 -25 55 -66 55 -121v-313zM212 77c43 0 90 23 115 57
v91h-19c-109 0 -157 -27 -157 -88c0 -41 21 -60 61 -60zM405 658c-8 -43 -32 -92 -90 -92c-31 0 -87 14 -133 14c-30 0 -57 -6 -75 -25l-13 23c15 49 32 91 98 91c38 0 89 -14 125 -14c24 0 49 6 76 26z" />
    <glyph glyph-name="b" unicode="b" horiz-adv-x="574" 
d="M322 -12c-72 0 -116 34 -153 75h-4l-8 -63h-88v740h109v-326c31 38 84 61 147 61c140 0 207 -115 207 -240c0 -141 -84 -247 -210 -247zM308 71c78 0 115 81 115 162c0 84 -40 157 -124 157c-38 0 -81 -15 -121 -64v-192c30 -39 87 -63 130 -63z" />
    <glyph glyph-name="backslash" unicode="\" horiz-adv-x="450" 
d="M307 -57l-278 759h113l278 -759h-113z" />
    <glyph glyph-name="bar" unicode="|" horiz-adv-x="256" 
d="M179 768v-882h-102v882h102z" />
    <glyph glyph-name="braceleft" unicode="{" horiz-adv-x="292" 
d="M244 760l2 -51c-32 -4 -35 -37 -35 -68c0 -32 2 -115 2 -143c0 -95 -26 -154 -94 -171c68 -17 94 -76 94 -171c0 -28 -2 -111 -2 -142c0 -32 3 -65 35 -69l-2 -51c-124 0 -144 57 -144 144c0 28 2 103 2 146c0 47 -3 115 -72 118v50c71 4 72 76 72 111
c0 57 -2 126 -2 154c0 86 20 143 144 143z" />
    <glyph glyph-name="braceright" unicode="}" horiz-adv-x="292" 
d="M48 -106l-2 51c32 4 35 37 35 68c0 32 -2 115 -2 143c0 95 26 154 94 171c-68 17 -94 76 -94 171c0 28 2 111 2 142c0 32 -3 65 -35 69l2 51c124 0 144 -57 144 -144c0 -28 -2 -103 -2 -146c0 -47 3 -115 72 -118v-50c-71 -4 -72 -76 -72 -111c0 -57 2 -126 2 -154
c0 -86 -20 -143 -144 -143z" />
    <glyph glyph-name="bracketleft" unicode="[" horiz-adv-x="281" 
d="M237 -23v-72h-160v844h160v-72h-55v-700h55z" />
    <glyph glyph-name="bracketright" unicode="]" horiz-adv-x="281" 
d="M44 677v72h160v-844h-160v72h55v700h-55z" />
    <glyph glyph-name="brokenbar" unicode="&#xa6;" horiz-adv-x="258" 
d="M78 274h102v-388h-102v388zM180 380h-102v388h102v-388z" />
    <glyph glyph-name="bullet" unicode="&#x2022;" horiz-adv-x="322" 
d="M89 243c0 37 32 73 71 73c37 0 73 -36 73 -73c0 -39 -36 -71 -73 -71c-39 0 -71 32 -71 71z" />
    <glyph glyph-name="c" unicode="c" horiz-adv-x="489" 
d="M448 435l-24 -89c-30 22 -92 43 -141 43c-91 0 -123 -71 -123 -149c0 -90 43 -163 129 -163c48 0 108 21 144 55l20 -94c-37 -24 -107 -50 -180 -50c-155 0 -231 114 -231 246c0 128 71 241 238 241c63 0 131 -16 168 -40z" />
    <glyph glyph-name="caron" unicode="&#x2c7;" horiz-adv-x="234" 
d="M121 535h-8l-110 99l-3 7l16 29l7 3l94 -41l94 41l7 -3l16 -29l-3 -7z" />
    <glyph glyph-name="ccedilla" unicode="&#xe7;" horiz-adv-x="490" 
d="M449 435l-24 -89c-30 22 -92 43 -141 43c-91 0 -123 -71 -123 -149c0 -90 43 -163 129 -163c48 0 108 21 144 55l20 -94c-34 -22 -94 -45 -159 -49l-18 -30c11 3 21 4 29 4c46 0 79 -35 79 -82c0 -52 -53 -99 -125 -99c-34 0 -68 9 -95 19l-1 6l28 48h7
c15 -6 40 -12 63 -12s44 7 44 30c0 24 -20 31 -42 31c-16 0 -34 -3 -48 -7l-19 26l44 67c-133 15 -198 121 -198 244c0 128 71 241 238 241c63 0 131 -16 168 -40z" />
    <glyph glyph-name="cedilla" unicode="&#xb8;" horiz-adv-x="202" 
d="M1 -199l-1 6l28 48h7c15 -6 40 -12 63 -12s44 7 44 30c0 24 -20 31 -42 31c-16 0 -34 -3 -48 -7l-19 26l51 77h54l-25 -41c11 3 21 4 29 4c46 0 79 -35 79 -82c0 -52 -53 -99 -125 -99c-34 0 -68 9 -95 19z" />
    <glyph glyph-name="cent" unicode="&#xa2;" horiz-adv-x="496" 
d="M331 577v-136c46 -6 89 -19 116 -36l-26 -93c-19 17 -53 32 -90 40v-273c38 9 75 28 101 52l20 -93c-27 -18 -71 -36 -121 -44v-131h-92v127c-133 14 -198 114 -198 229c0 110 59 208 198 224v134h92zM148 222c0 -64 35 -121 91 -141v272c-60 -17 -91 -74 -91 -131z" />
    <glyph glyph-name="circumflex" unicode="&#x2c6;" horiz-adv-x="234" 
d="M113 673h8l110 -99l3 -7l-16 -29l-7 -3l-94 41l-94 -41l-7 3l-16 29l3 7z" />
    <glyph glyph-name="colon" unicode=":" horiz-adv-x="274" 
d="M65 59c0 37 32 73 71 73c37 0 73 -36 73 -73c0 -39 -36 -71 -73 -71c-39 0 -71 32 -71 71zM65 382c0 37 32 73 71 73c37 0 73 -36 73 -73c0 -39 -36 -71 -73 -71c-39 0 -71 32 -71 71z" />
    <glyph glyph-name="comma" unicode="," horiz-adv-x="261" 
d="M87 -143l-36 25l45 113h-25v137h119v-152z" />
    <glyph glyph-name="copyright" unicode="&#xa9;" horiz-adv-x="711" 
d="M355 654c168 0 304 -135 304 -300c0 -169 -136 -302 -309 -302c-163 0 -298 137 -298 302s135 300 303 300zM470 497l-16 -70c-19 12 -65 24 -100 24c-63 0 -87 -48 -87 -96c0 -53 30 -101 90 -101c37 0 79 17 104 36l12 -71c-26 -17 -75 -35 -126 -35
c-108 0 -161 80 -161 172c0 90 49 169 166 169c44 0 92 -11 118 -28zM357 600c-138 0 -244 -108 -244 -244c0 -140 103 -250 235 -250c141 0 247 107 247 247c0 137 -105 247 -238 247z" />
    <glyph glyph-name="currency" unicode="&#xa4;" horiz-adv-x="592" 
d="M51 40l71 72c-27 35 -39 74 -39 118c0 41 11 77 40 116l-75 72l55 55l73 -71c40 27 76 39 119 39c44 0 81 -12 118 -39l73 71l55 -54l-71 -73c27 -39 39 -75 39 -118c0 -42 -11 -78 -38 -116l73 -72l-56 -55l-74 71c-36 -26 -75 -40 -117 -40c-41 0 -77 12 -119 40
l-73 -71zM296 363c-73 0 -133 -58 -133 -134c0 -75 59 -134 134 -134c74 0 132 59 132 134c0 74 -58 134 -133 134z" />
    <glyph glyph-name="d" unicode="d" horiz-adv-x="574" 
d="M252 -12c-126 0 -210 106 -210 247c0 125 67 240 207 240c63 0 116 -23 147 -61v326h109v-740h-88l-8 63h-4c-37 -41 -81 -75 -153 -75zM266 71c43 0 100 24 130 63v192c-40 49 -83 64 -121 64c-84 0 -124 -73 -124 -157c0 -81 37 -162 115 -162z" />
    <glyph glyph-name="dagger" unicode="&#x2020;" horiz-adv-x="466" 
d="M298 109h-130l22 216v94h-10l-144 -12v103l145 -12h10l-22 194h130l-22 -194h9l144 12v-103l-145 12h-9v-94z" />
    <glyph glyph-name="daggerdbl" unicode="&#x2021;" horiz-adv-x="500" 
d="M207 419h-10l-144 -12v103l144 -12h10l-22 194h130l-22 -194h9l145 12v-103l-144 12h-10v-217h10l144 12v-103l-145 12h-9l22 -194h-130l22 194h-10l-144 -12v103l144 -12h10v217z" />
    <glyph glyph-name="degree" unicode="&#xb0;" horiz-adv-x="370" 
d="M184 658c92 0 138 -60 138 -133c0 -69 -42 -126 -138 -126s-136 60 -136 128c0 72 48 131 136 131zM184 460c46 0 64 31 64 67c0 35 -18 67 -64 67c-47 0 -66 -31 -66 -64c0 -36 22 -70 66 -70z" />
    <glyph glyph-name="dieresis" unicode="&#xa8;" horiz-adv-x="220" 
d="M0 618c0 30 26 59 57 59c30 0 59 -29 59 -59c0 -31 -29 -57 -59 -57c-31 0 -57 26 -57 57zM136 618c0 30 26 59 57 59c30 0 59 -29 59 -59c0 -31 -29 -57 -59 -57c-31 0 -57 26 -57 57z" />
    <glyph glyph-name="divide" unicode="&#xf7;" horiz-adv-x="513" 
d="M50 280h414v-82h-414v82zM196 64c0 37 32 73 71 73c37 0 73 -36 73 -73c0 -39 -36 -71 -73 -71c-39 0 -71 32 -71 71zM196 412c0 37 32 73 71 73c37 0 73 -36 73 -73c0 -39 -36 -71 -73 -71c-39 0 -71 32 -71 71z" />
    <glyph glyph-name="dollar" unicode="$" horiz-adv-x="518" 
d="M305 750v-88c54 -5 105 -19 141 -35l-27 -106c-32 21 -75 36 -114 44v-174c88 -34 176 -83 176 -210c0 -121 -80 -175 -176 -189v-88h-80v85c-75 4 -142 27 -189 54l29 103c42 -33 95 -57 160 -62v209c-76 26 -171 65 -171 199c0 116 73 163 171 171v87h80zM371 169
c0 45 -31 73 -66 92v-170c45 12 66 41 66 78zM160 500c0 -39 25 -60 65 -78v145c-40 -7 -65 -29 -65 -67z" />
    <glyph glyph-name="dotlessi" unicode="&#x131;" horiz-adv-x="238" 
d="M169 460v-460h-100v460h100z" />
    <glyph glyph-name="e" unicode="e" horiz-adv-x="505" 
d="M278 475c117 0 184 -62 184 -170c0 -29 -8 -70 -19 -85h-291c5 -80 49 -145 136 -145c49 0 110 21 149 49l18 -82c-35 -22 -104 -54 -184 -54c-149 0 -230 113 -230 242c0 132 84 245 237 245zM275 389c-55 0 -97 -35 -114 -91h191c1 4 2 9 2 17c0 43 -33 74 -79 74z" />
    <glyph glyph-name="eacute" unicode="&#xe9;" horiz-adv-x="505" 
d="M278 475c117 0 184 -62 184 -170c0 -29 -8 -70 -19 -85h-291c5 -80 49 -145 136 -145c49 0 110 21 149 49l18 -82c-35 -22 -104 -54 -184 -54c-149 0 -230 113 -230 242c0 132 84 245 237 245zM208 532l-8 3l-15 36l3 7l180 101c4 2 7 3 10 3c18 0 30 -31 30 -52
c0 -14 -4 -26 -13 -29zM275 389c-59 0 -98 -38 -114 -91h191c1 6 1 12 1 18c0 48 -37 73 -78 73z" />
    <glyph glyph-name="ecircumflex" unicode="&#xea;" horiz-adv-x="505" 
d="M278 475c117 0 184 -62 184 -170c0 -29 -8 -70 -19 -85h-291c5 -80 49 -145 136 -145c49 0 110 21 149 49l18 -82c-35 -22 -104 -54 -184 -54c-149 0 -230 113 -230 242c0 132 84 245 237 245zM261 673h8l110 -99l3 -7l-16 -29l-7 -3l-94 41l-94 -41l-7 3l-16 29l3 7z
M275 389c-59 0 -98 -38 -114 -91h191c1 6 1 12 1 18c0 48 -37 73 -78 73z" />
    <glyph glyph-name="edieresis" unicode="&#xeb;" horiz-adv-x="505" 
d="M278 475c117 0 184 -62 184 -170c0 -29 -8 -70 -19 -85h-291c5 -80 49 -145 136 -145c49 0 110 21 149 49l18 -82c-35 -22 -104 -54 -184 -54c-149 0 -230 113 -230 242c0 132 84 245 237 245zM275 389c-59 0 -98 -38 -114 -91h191c1 6 1 12 1 18c0 48 -37 73 -78 73z
M138 612c0 30 26 59 57 59c30 0 59 -29 59 -59c0 -31 -29 -57 -59 -57c-31 0 -57 26 -57 57zM274 612c0 30 26 59 57 59c30 0 59 -29 59 -59c0 -31 -29 -57 -59 -57c-31 0 -57 26 -57 57z" />
    <glyph glyph-name="egrave" unicode="&#xe8;" horiz-adv-x="505" 
d="M278 475c117 0 184 -62 184 -170c0 -29 -8 -70 -19 -85h-291c5 -80 49 -145 136 -145c49 0 110 21 149 49l18 -82c-35 -22 -104 -54 -184 -54c-149 0 -230 113 -230 242c0 132 84 245 237 245zM338 534l-8 -3l-187 69c-9 3 -13 15 -13 29c0 23 12 52 30 52
c3 0 6 -1 10 -3l180 -101l3 -7zM275 389c-59 0 -98 -38 -114 -91h191c1 6 1 12 1 18c0 48 -37 73 -78 73z" />
    <glyph glyph-name="eight" unicode="8" horiz-adv-x="544" 
d="M372 366v-4c77 -17 121 -85 121 -174c0 -111 -69 -200 -222 -200c-160 0 -220 96 -220 198c0 88 45 152 121 175v4c-47 17 -88 67 -88 140c0 95 69 160 188 160c116 0 188 -62 188 -157c0 -70 -39 -121 -88 -142zM378 185c0 62 -32 128 -107 128
c-76 0 -107 -68 -107 -128c0 -71 43 -110 107 -110s107 39 107 110zM348 492c0 52 -27 84 -77 84c-49 0 -77 -30 -77 -83c0 -55 30 -90 77 -90s77 35 77 89z" />
    <glyph glyph-name="ellipsis" unicode="&#x2026;" horiz-adv-x="634" 
d="M435 59c0 37 32 73 71 73c37 0 73 -36 73 -73c0 -39 -36 -71 -73 -71c-39 0 -71 32 -71 71zM56 59c0 37 32 73 71 73c37 0 73 -36 73 -73c0 -39 -36 -71 -73 -71c-39 0 -71 32 -71 71zM246 59c0 37 32 73 71 73c37 0 73 -36 73 -73c0 -39 -36 -71 -73 -71
c-39 0 -71 32 -71 71z" />
    <glyph glyph-name="emdash" unicode="&#x2014;" horiz-adv-x="772" 
d="M65 280h642v-82h-642v82z" />
    <glyph glyph-name="endash" unicode="&#x2013;" horiz-adv-x="544" 
d="M65 280h414v-82h-414v82z" />
    <glyph glyph-name="equal" unicode="=" horiz-adv-x="476" 
d="M69 204h338v-82h-338v82zM69 356h338v-82h-338v82z" />
    <glyph glyph-name="eth" unicode="&#xf0;" horiz-adv-x="560" 
d="M222 542l-21 65l97 25c-35 47 -75 86 -114 108h147c24 -23 48 -50 69 -81l123 33l21 -68l-106 -27c44 -84 74 -189 74 -307c0 -162 -54 -302 -235 -302c-170 0 -235 123 -235 244c0 131 77 243 219 243c67 0 113 -25 137 -65l3 1c-7 46 -30 104 -63 160zM276 71
c78 0 113 72 113 155c0 85 -36 163 -118 163c-77 0 -111 -71 -111 -154c0 -85 35 -164 116 -164z" />
    <glyph glyph-name="exclam" unicode="!" horiz-adv-x="270" 
d="M178 180h-87l-24 502h137zM62 59c0 37 32 69 71 69c38 0 73 -32 73 -70s-36 -70 -74 -70s-70 33 -70 71z" />
    <glyph glyph-name="exclamdown" unicode="&#xa1;" horiz-adv-x="255" 
d="M84 284h87l24 -502h-137zM200 405c0 -37 -32 -69 -71 -69c-38 0 -73 32 -73 70s36 70 74 70s70 -33 70 -71z" />
    <glyph glyph-name="f" unicode="f" horiz-adv-x="310" 
d="M91 0v393h-57v57l57 9c0 151 21 209 42 237c26 35 72 49 124 49c14 0 62 -1 95 -21l-25 -85c-13 8 -49 27 -78 27c-34 0 -48 -28 -48 -140v-66h88v-67h-88v-393h-110z" />
    <glyph glyph-name="five" unicode="5" horiz-adv-x="531" 
d="M102 287l-29 15l39 363h339v-105h-246l-15 -158c28 8 61 11 86 11c122 0 209 -74 209 -202c0 -122 -80 -223 -245 -223c-81 0 -151 24 -203 67l29 95c39 -37 108 -64 169 -64c68 0 128 33 128 118c0 64 -28 108 -123 108c-41 0 -94 -8 -138 -25z" />
    <glyph glyph-name="florin" unicode="&#x192;" horiz-adv-x="633" 
d="M486 393h-101l-81 -396c-33 -158 -106 -254 -217 -254c-16 0 -32 2 -49 6l-8 88c18 -4 33 -6 47 -6c63 0 87 43 114 169l83 393h-43v57l56 7l20 93c32 151 104 195 184 195c39 0 80 -11 119 -24l-41 -86c-36 18 -62 31 -82 31c-34 0 -53 -36 -74 -140l-14 -66h87v-67z
" />
    <glyph glyph-name="four" unicode="4" horiz-adv-x="538" 
d="M494 280v-90h-69v-190h-115v190h-284v90l279 380h120v-380h69zM139 280h171v242z" />
    <glyph glyph-name="foursuperior" unicode="&#x2074;" horiz-adv-x="375" 
d="M323 452v-62h-34v-91h-68v91h-182v62l147 213h103v-213h34zM111 452h110v154z" />
    <glyph glyph-name="g" unicode="g" horiz-adv-x="498" 
d="M130 141v4c-60 25 -85 84 -85 146c0 105 72 184 188 184c35 0 71 -7 96 -20c55 1 101 9 143 21l9 -7l-11 -76l-5 -5l-71 8l-1 -3c22 -28 34 -63 34 -101c0 -92 -68 -168 -189 -168c-14 0 -22 1 -30 1c-23 -8 -35 -22 -35 -35c0 -14 14 -26 45 -30l97 -12
c88 -11 157 -53 157 -137c0 -83 -68 -159 -227 -159c-140 0 -219 59 -219 134c0 54 40 107 91 124v4c-31 13 -41 39 -41 60c0 28 19 54 54 67zM237 201c54 0 83 41 83 91c0 47 -27 104 -87 104c-57 0 -84 -51 -84 -98c0 -48 29 -97 88 -97zM206 -22c-45 -8 -82 -41 -82 -80
c0 -42 44 -64 123 -64c78 0 129 21 129 70c0 48 -47 63 -170 74z" />
    <glyph glyph-name="germandbls" unicode="&#xdf;" horiz-adv-x="553" 
d="M169 486v-486h-100v486c0 150 67 250 200 250c98 0 162 -65 162 -135c0 -90 -102 -151 -102 -211c0 -82 198 -96 198 -252c0 -120 -98 -165 -161 -165c-48 0 -91 21 -117 44l29 105c22 -39 55 -67 95 -67c27 0 50 24 50 72c0 142 -190 126 -190 256c0 93 93 138 93 213
c0 32 -21 59 -61 59c-84 0 -96 -82 -96 -169z" />
    <glyph glyph-name="grave" unicode="`" horiz-adv-x="219" 
d="M208 536l-8 -3l-187 69c-9 3 -13 15 -13 29c0 23 12 52 30 52c3 0 6 -1 10 -3l180 -101l3 -7z" />
    <glyph glyph-name="greater" unicode="&#x3e;" horiz-adv-x="397" 
d="M252 238v5l-197 131l18 93l285 -194v-65l-286 -197l-18 94z" />
    <glyph glyph-name="guillemotleft" unicode="&#xab;" horiz-adv-x="531" 
d="M144 243v-5l145 -177h-113l-133 178v5l134 176h112zM338 243v-5l145 -177h-113l-133 178v5l134 176h112z" />
    <glyph glyph-name="guillemotright" unicode="&#xbb;" horiz-adv-x="531" 
d="M387 238v5l-145 177h112l134 -176v-5l-133 -178h-113zM193 238v5l-145 177h112l134 -176v-5l-133 -178h-113z" />
    <glyph glyph-name="guilsinglleft" unicode="&#x2039;" horiz-adv-x="337" 
d="M144 243v-5l145 -177h-113l-133 178v5l134 176h112z" />
    <glyph glyph-name="guilsinglright" unicode="&#x203a;" horiz-adv-x="337" 
d="M193 238v5l-145 177h112l134 -176v-5l-133 -178h-113z" />
    <glyph glyph-name="h" unicode="h" horiz-adv-x="552" 
d="M179 740v-348c37 58 86 83 154 83c81 0 154 -41 154 -162v-313h-110v304c0 54 -26 82 -67 82c-51 0 -113 -34 -131 -91v-295h-110v740h110z" />
    <glyph glyph-name="hyphen" unicode="-" horiz-adv-x="468" 
d="M65 280h338v-82h-338v82z" />
    <glyph glyph-name="i" unicode="i" horiz-adv-x="248" 
d="M179 460v-460h-110v460h110zM53 608c0 37 32 73 71 73c37 0 73 -36 73 -73c0 -39 -36 -71 -73 -71c-39 0 -71 32 -71 71z" />
    <glyph glyph-name="iacute" unicode="&#xed;" horiz-adv-x="248" 
d="M179 460v-460h-110v460h110zM47 532l-8 3l-15 36l3 7l180 101c4 2 7 3 10 3c18 0 30 -29 30 -52c0 -14 -4 -26 -13 -29z" />
    <glyph glyph-name="icircumflex" unicode="&#xee;" horiz-adv-x="248" 
d="M179 460v-460h-110v460h110zM117 673h8l110 -99l3 -7l-16 -29l-7 -3l-94 41l-94 -41l-7 3l-16 29l3 7z" />
    <glyph glyph-name="idieresis" unicode="&#xef;" horiz-adv-x="248" 
d="M179 460v-460h-110v460h110zM-3 612c0 30 26 59 57 59c30 0 59 -29 59 -59c0 -31 -29 -57 -59 -57c-31 0 -57 26 -57 57zM133 612c0 30 26 59 57 59c30 0 59 -29 59 -59c0 -31 -29 -57 -59 -57c-31 0 -57 26 -57 57z" />
    <glyph glyph-name="igrave" unicode="&#xec;" horiz-adv-x="248" 
d="M179 460v-460h-110v460h110zM184 534l-8 -3l-187 69c-9 3 -13 15 -13 29c0 23 12 52 30 52c3 0 6 -1 10 -3l180 -101l3 -7z" />
    <glyph glyph-name="j" unicode="j" horiz-adv-x="248" 
d="M179 460v-463c0 -136 -61 -255 -175 -255c-10 0 -20 1 -24 3l-18 67c4 -2 13 -3 21 -3c80 0 86 112 86 189v462h110zM53 608c0 37 32 73 71 73c38 0 73 -36 73 -74s-36 -70 -74 -70s-70 33 -70 71z" />
    <glyph glyph-name="k" unicode="k" horiz-adv-x="493" 
d="M455 460l-164 -162l196 -298h-120l-149 226l-39 -39v-187h-110v740h110v-427l153 147h123z" />
    <glyph glyph-name="l" unicode="l" horiz-adv-x="260" 
d="M185 740v-740h-110v740h110z" />
    <glyph glyph-name="less" unicode="&#x3c;" horiz-adv-x="397" 
d="M145 243v-5l198 -133l-18 -94l-286 197v65l285 194l18 -93z" />
    <glyph glyph-name="logicalnot" unicode="&#xac;" horiz-adv-x="624" 
d="M69 356h480v-239h-93v157h-387v82z" />
    <glyph glyph-name="m" unicode="m" horiz-adv-x="835" 
d="M477 0h-110v304c0 54 -23 82 -65 82s-106 -33 -123 -91v-295h-110v460h86l5 -68h4c27 56 91 83 156 83c62 0 118 -22 143 -82c27 55 90 82 155 82c85 0 157 -41 157 -162v-313h-110v304c0 54 -23 82 -65 82s-106 -33 -123 -91v-295z" />
    <glyph glyph-name="mu" unicode="&#xb5;" horiz-adv-x="573" 
d="M107 460h110v-299c0 -54 32 -84 77 -84c47 0 89 34 107 92v291h111v-460h-86l-6 64h-4c-30 -60 -94 -76 -150 -76c-28 0 -53 4 -75 12l-2 -8c-14 -56 -28 -93 -54 -150l-104 47c47 90 76 160 76 258v313z" />
    <glyph glyph-name="multiply" unicode="&#xd7;" horiz-adv-x="456" 
d="M343 73l-115 114l-113 -113l-52 52l113 113l-113 112l52 52l113 -112l114 114l52 -52l-114 -114l114 -115z" />
    <glyph glyph-name="n" unicode="n" horiz-adv-x="547" 
d="M487 0h-110v304c0 54 -25 82 -70 82c-44 0 -110 -33 -128 -91v-295h-110v460h86l5 -68h4c28 56 94 83 161 83c87 0 162 -41 162 -162v-313z" />
    <glyph glyph-name="nine" unicode="9" 
d="M376 320l-3 1c-22 -48 -73 -70 -136 -70c-152 0 -192 126 -192 205c0 95 58 208 214 208c165 0 224 -125 224 -312c0 -182 -56 -364 -246 -364c-47 0 -123 11 -164 52l25 88c44 -33 98 -45 135 -45c112 0 144 110 144 208c0 10 0 19 -1 29zM163 452
c0 -57 20 -110 90 -110c67 0 102 49 102 117c0 69 -37 114 -97 114s-95 -45 -95 -121z" />
    <glyph glyph-name="ntilde" unicode="&#xf1;" horiz-adv-x="547" 
d="M425 658c-8 -43 -32 -92 -90 -92c-31 0 -87 14 -133 14c-30 0 -57 -6 -75 -25l-13 23c15 49 32 91 98 91c38 0 89 -14 125 -14c24 0 49 6 76 26zM487 0h-110v304c0 54 -25 82 -70 82c-44 0 -110 -33 -128 -91v-295h-110v460h86l5 -68h4c28 56 94 83 161 83
c87 0 162 -41 162 -162v-313z" />
    <glyph glyph-name="numbersign" unicode="#" horiz-adv-x="617" 
d="M522 654l-41 -193h101l-16 -82h-103l-19 -89h108l-17 -83h-108l-44 -207h-104l44 207h-86l-44 -207h-104l44 207h-97l17 83h97l19 89h-102l16 82h104l41 193h104l-41 -193h86l41 193h104zM273 379l-19 -89h86l19 89h-86z" />
    <glyph glyph-name="o" unicode="o" horiz-adv-x="549" 
d="M274 475c162 0 233 -118 233 -248s-72 -239 -230 -239c-162 0 -235 114 -235 244s74 243 232 243zM276 71c78 0 113 72 113 155c0 85 -36 163 -118 163c-77 0 -111 -71 -111 -154c0 -85 35 -164 116 -164z" />
    <glyph glyph-name="oacute" unicode="&#xf3;" horiz-adv-x="549" 
d="M274 475c162 0 233 -118 233 -248s-72 -239 -230 -239c-162 0 -235 114 -235 244s74 243 232 243zM276 71c78 0 113 72 113 155c0 85 -36 163 -118 163c-77 0 -111 -71 -111 -154c0 -85 35 -164 116 -164zM215 532l-8 3l-15 36l3 7l180 101c4 2 7 3 10 3
c18 0 30 -29 30 -52c0 -14 -4 -26 -13 -29z" />
    <glyph glyph-name="ocircumflex" unicode="&#xf4;" horiz-adv-x="549" 
d="M274 475c162 0 233 -118 233 -248s-72 -239 -230 -239c-162 0 -235 114 -235 244s74 243 232 243zM276 71c78 0 113 72 113 155c0 85 -36 163 -118 163c-77 0 -111 -71 -111 -154c0 -85 35 -164 116 -164zM279 673h8l110 -99l3 -7l-16 -29l-7 -3l-94 41l-94 -41l-7 3
l-16 29l3 7z" />
    <glyph glyph-name="odieresis" unicode="&#xf6;" horiz-adv-x="549" 
d="M274 475c162 0 233 -118 233 -248s-72 -239 -230 -239c-162 0 -235 114 -235 244s74 243 232 243zM276 71c78 0 113 72 113 155c0 85 -36 163 -118 163c-77 0 -111 -71 -111 -154c0 -85 35 -164 116 -164zM150 612c0 30 26 59 57 59c30 0 59 -29 59 -59
c0 -31 -29 -57 -59 -57c-31 0 -57 26 -57 57zM286 612c0 30 26 59 57 59c30 0 59 -29 59 -59c0 -31 -29 -57 -59 -57c-31 0 -57 26 -57 57z" />
    <glyph glyph-name="oe" unicode="&#x153;" horiz-adv-x="844" 
d="M274 475c77 0 137 -27 171 -88c40 60 98 88 172 88c117 0 184 -62 184 -170c0 -29 -8 -70 -19 -85h-291c5 -80 49 -145 136 -145c49 0 110 21 149 49l18 -82c-35 -22 -104 -54 -184 -54c-70 0 -129 26 -164 84c-34 -61 -94 -84 -169 -84c-162 0 -235 114 -235 244
s74 243 232 243zM276 71c78 0 113 72 113 155c0 85 -36 163 -118 163c-77 0 -111 -71 -111 -154c0 -85 35 -164 116 -164zM614 389c-59 0 -98 -38 -114 -91h191c1 6 1 12 1 18c0 48 -37 73 -78 73z" />
    <glyph glyph-name="ograve" unicode="&#xf2;" horiz-adv-x="549" 
d="M274 475c162 0 233 -118 233 -248s-72 -239 -230 -239c-162 0 -235 114 -235 244s74 243 232 243zM276 71c78 0 113 72 113 155c0 85 -36 163 -118 163c-77 0 -111 -71 -111 -154c0 -85 35 -164 116 -164zM337 534l-8 -3l-187 69c-9 3 -13 15 -13 29c0 23 12 52 30 52
c3 0 6 -1 10 -3l180 -101l3 -7z" />
    <glyph glyph-name="one" unicode="1" horiz-adv-x="333" 
d="M245 660v-660h-115v486l-81 -36l-22 100z" />
    <glyph glyph-name="onesuperior" unicode="&#xb9;" horiz-adv-x="252" 
d="M180 665v-366h-75v266l-57 -28l-13 52z" />
    <glyph glyph-name="ordfeminine" unicode="&#xaa;" horiz-adv-x="365" 
d="M299 369h-59l-4 37h-4c-21 -27 -62 -45 -100 -45c-52 0 -81 33 -81 80c0 66 57 105 150 105h25v9c0 16 -3 27 -15 36s-28 13 -46 13c-34 0 -58 -14 -81 -30l-13 55c27 20 58 29 99 29c34 0 68 -6 92 -25c25 -20 37 -52 37 -83v-181zM157 415c26 0 54 14 69 34v55h-11
c-66 0 -94 -17 -94 -54c0 -24 12 -35 36 -35z" />
    <glyph glyph-name="ordmasculine" unicode="&#xba;" horiz-adv-x="392" 
d="M195 668c96 0 150 -75 150 -158c0 -78 -49 -151 -149 -151c-102 0 -149 76 -149 154c0 84 56 155 148 155zM196 430c48 0 67 34 67 80s-22 84 -70 84c-49 0 -65 -35 -65 -80c0 -46 22 -84 68 -84z" />
    <glyph glyph-name="oslash" unicode="&#xf8;" horiz-adv-x="550" 
d="M458 497l59 -44l-57 -65c32 -45 47 -102 47 -161c0 -130 -72 -239 -230 -239c-55 0 -100 13 -135 36l-54 -62l-56 50l55 63c-31 43 -45 98 -45 157c0 130 74 243 232 243c54 0 98 -14 133 -36zM276 71c78 0 113 72 113 155c0 28 -4 54 -12 78l-176 -201
c18 -20 43 -32 75 -32zM160 235c0 -27 3 -53 10 -76l176 199c-19 19 -44 31 -75 31c-77 0 -111 -71 -111 -154z" />
    <glyph glyph-name="otilde" unicode="&#xf5;" horiz-adv-x="549" 
d="M274 475c162 0 233 -118 233 -248s-72 -239 -230 -239c-162 0 -235 114 -235 244s74 243 232 243zM276 71c78 0 113 72 113 155c0 85 -36 163 -118 163c-77 0 -111 -71 -111 -154c0 -85 35 -164 116 -164zM420 658c-8 -43 -32 -92 -90 -92c-31 0 -87 14 -133 14
c-30 0 -57 -6 -75 -25l-13 23c15 49 32 91 98 91c38 0 89 -14 125 -14c24 0 49 6 76 26z" />
    <glyph glyph-name="p" unicode="p" horiz-adv-x="575" 
d="M325 475c144 0 207 -117 207 -246c0 -131 -66 -241 -209 -241c-60 0 -114 17 -145 55v-303h-109v720h88l8 -63h4c34 43 101 78 156 78zM307 391c-40 0 -99 -26 -129 -65v-195c40 -49 84 -56 119 -56c87 0 126 68 126 152c0 80 -35 164 -116 164z" />
    <glyph glyph-name="paragraph" unicode="&#xb6;" horiz-adv-x="557" 
d="M248 -86v334h-21c-122 0 -194 94 -194 205c0 138 96 212 240 212c50 0 131 -3 194 -5v-746h-85v655h-44v-655h-90z" />
    <glyph glyph-name="parenleft" unicode="(" horiz-adv-x="327" 
d="M243 771l68 -25c-102 -119 -147 -244 -147 -420c0 -105 16 -260 146 -418l-67 -25c-127 114 -202 274 -202 444s75 328 202 444z" />
    <glyph glyph-name="parenright" unicode=")" horiz-adv-x="327" 
d="M16 746l68 25c127 -116 202 -274 202 -444s-75 -330 -202 -444l-67 25c130 158 146 313 146 418c0 176 -45 301 -147 420z" />
    <glyph glyph-name="period" unicode="." horiz-adv-x="255" 
d="M56 59c0 37 32 73 71 73c37 0 73 -36 73 -73c0 -39 -36 -71 -73 -71c-39 0 -71 32 -71 71z" />
    <glyph glyph-name="periodcentered" unicode="&#xb7;" horiz-adv-x="267" 
d="M62 243c0 37 32 73 71 73c37 0 73 -36 73 -73c0 -39 -36 -71 -73 -71c-39 0 -71 32 -71 71z" />
    <glyph glyph-name="plus" unicode="+" horiz-adv-x="487" 
d="M289 427v-147h152v-82h-152v-157h-92v157h-151v82h151v147h92z" />
    <glyph glyph-name="plusminus" unicode="&#xb1;" horiz-adv-x="463" 
d="M72 284v82h116v89h92v-89h111v-82h-111v-101h-92v101h-116zM71 123h321v-82h-321v82z" />
    <glyph glyph-name="q" unicode="q" horiz-adv-x="575" 
d="M250 475c55 0 122 -35 156 -78h4l8 63h88v-720h-109v303c-31 -38 -85 -55 -145 -55c-143 0 -209 110 -209 241c0 129 63 246 207 246zM268 391c-81 0 -116 -84 -116 -164c0 -84 39 -154 126 -154c35 0 79 13 119 58v195c-30 39 -89 65 -129 65z" />
    <glyph glyph-name="question" unicode="?" horiz-adv-x="409" 
d="M62 538l-26 96c37 28 97 52 156 52c98 0 169 -67 169 -158c0 -120 -125 -176 -126 -347h-104c0 182 121 241 121 335c0 53 -38 72 -78 72c-42 0 -88 -21 -112 -50zM114 59c0 37 32 69 71 69c38 0 73 -32 73 -70s-36 -70 -74 -70s-70 33 -70 71z" />
    <glyph glyph-name="questiondown" unicode="&#xbf;" horiz-adv-x="401" 
d="M342 -74l26 -96c-37 -28 -97 -52 -156 -52c-98 0 -169 67 -169 158c0 120 125 176 126 347h104c0 -182 -121 -241 -121 -335c0 -53 38 -72 78 -72c42 0 88 21 112 50zM290 405c0 -37 -32 -69 -71 -69c-38 0 -73 32 -73 70s36 70 74 70s70 -33 70 -71z" />
    <glyph glyph-name="quotedbl" unicode="&#x22;" horiz-adv-x="376" 
d="M147 516h-76l-21 216h121zM304 516h-76l-21 216h121z" />
    <glyph glyph-name="quotedblbase" unicode="&#x201e;" horiz-adv-x="420" 
d="M87 -143l-36 25l45 113h-25v137h119v-152zM246 -143l-36 25l45 113h-25v137h119v-152z" />
    <glyph glyph-name="quotedblleft" unicode="&#x201c;" horiz-adv-x="411" 
d="M328 735l36 -25l-45 -113h25v-137h-119v152zM169 735l36 -25l-45 -113h25v-137h-119v152z" />
    <glyph glyph-name="quotedblright" unicode="&#x201d;" horiz-adv-x="392" 
d="M88 460l-36 25l45 113h-25v137h119v-152zM247 460l-36 25l45 113h-25v137h119v-152z" />
    <glyph glyph-name="quoteleft" unicode="&#x2018;" horiz-adv-x="252" 
d="M169 735l36 -25l-45 -113h25v-137h-119v152z" />
    <glyph glyph-name="quoteright" unicode="&#x2019;" horiz-adv-x="233" 
d="M88 460l-36 25l45 113h-25v137h119v-152z" />
    <glyph glyph-name="quotesinglbase" unicode="&#x201a;" horiz-adv-x="261" 
d="M87 -143l-36 25l45 113h-25v137h119v-152z" />
    <glyph glyph-name="quotesingle" unicode="'" horiz-adv-x="219" 
d="M147 516h-76l-21 216h121z" />
    <glyph glyph-name="r" unicode="r" horiz-adv-x="374" 
d="M361 449l-29 -89c-13 10 -47 18 -67 18c-52 0 -69 -55 -86 -111v-267h-110v460h86l5 -96h4c28 56 55 111 122 111c27 0 52 -9 75 -26z" />
    <glyph glyph-name="registered" unicode="&#xae;" horiz-adv-x="711" 
d="M355 654c168 0 304 -135 304 -300c0 -169 -136 -302 -309 -302c-163 0 -298 137 -298 302s135 300 303 300zM357 600c-138 0 -244 -108 -244 -244c0 -140 103 -250 235 -250c141 0 247 107 247 247c0 137 -105 247 -238 247zM355 320h-41v-119h-67v328c21 2 68 3 83 3
c111 0 137 -47 137 -108c0 -36 -20 -69 -54 -88l75 -135h-71zM330 484h-16v-116h29c37 0 59 29 59 62c0 30 -18 54 -72 54z" />
    <glyph glyph-name="ring" unicode="&#x2da;" horiz-adv-x="164" 
d="M92 693c58 0 92 -43 92 -85c0 -40 -31 -80 -91 -80c-63 0 -93 43 -93 82c0 42 34 83 92 83zM93 572c20 0 33 19 33 36c0 19 -14 41 -35 41c-22 0 -34 -20 -34 -38c0 -19 15 -39 36 -39z" />
    <glyph glyph-name="s" unicode="s" horiz-adv-x="433" 
d="M209 393c-44 0 -70 -17 -70 -48c0 -20 10 -38 55 -48l71 -16c111 -25 132 -96 132 -143c0 -86 -71 -150 -184 -150c-70 0 -134 25 -170 50l26 95c45 -44 107 -65 155 -65c50 0 78 23 78 62c0 23 -10 38 -50 48l-96 24c-90 22 -111 84 -111 133c0 89 69 140 169 140
c52 0 119 -14 160 -41l-29 -90c-26 21 -78 49 -136 49z" />
    <glyph glyph-name="scaron" unicode="&#x161;" horiz-adv-x="433" 
d="M209 393c-44 0 -70 -17 -70 -48c0 -20 10 -38 55 -48l71 -16c111 -25 132 -96 132 -143c0 -86 -71 -150 -184 -150c-70 0 -134 25 -170 50l26 95c45 -44 107 -65 155 -65c50 0 78 23 78 62c0 23 -10 38 -50 48l-96 24c-90 22 -111 84 -111 133c0 89 69 140 169 140
c52 0 119 -14 160 -41l-29 -90c-26 21 -78 49 -136 49zM216 535h-8l-110 99l-3 7l16 29l7 3l94 -41l94 41l7 -3l16 -29l-3 -7z" />
    <glyph glyph-name="section" unicode="&#xa7;" horiz-adv-x="434" 
d="M201 550c0 -117 190 -140 190 -276c0 -50 -26 -100 -63 -129c7 -18 11 -38 11 -61c0 -102 -81 -148 -145 -148c-44 0 -96 21 -127 46l33 77c25 -19 55 -30 78 -30c35 0 55 27 55 66c0 117 -190 140 -190 276c0 49 25 100 63 128c-7 19 -11 39 -11 62
c0 102 81 148 145 148c44 0 96 -21 127 -46l-33 -77c-25 19 -55 30 -78 30c-35 0 -55 -27 -55 -66zM132 397c0 -82 99 -122 160 -193c6 13 10 28 10 44c0 81 -100 121 -161 193c-6 -13 -9 -29 -9 -44z" />
    <glyph glyph-name="semicolon" unicode=";" horiz-adv-x="279" 
d="M69 382c0 37 32 73 71 73c37 0 73 -36 73 -73c0 -39 -36 -71 -73 -71c-39 0 -71 32 -71 71zM96 -143l-36 25l45 113h-25v137h119v-152z" />
    <glyph glyph-name="seven" unicode="7" horiz-adv-x="457" 
d="M204 0h-127c-1 12 -1 27 -1 39c0 158 140 390 252 521h-291v105h405v-105c-115 -125 -239 -381 -239 -520c0 -15 0 -28 1 -40z" />
    <glyph glyph-name="six" unicode="6" 
d="M163 332l3 -1c22 48 73 70 136 70c152 0 192 -126 192 -205c0 -95 -58 -208 -214 -208c-165 0 -224 125 -224 312c0 182 56 364 246 364c47 0 123 -11 164 -52l-25 -88c-44 33 -98 45 -135 45c-112 0 -144 -110 -144 -208c0 -10 0 -19 1 -29zM376 200
c0 57 -20 110 -90 110c-67 0 -102 -49 -102 -117c0 -69 37 -114 97 -114s95 45 95 121z" />
    <glyph glyph-name="slash" unicode="/" horiz-adv-x="451" 
d="M422 702l-278 -759h-115l278 759h115z" />
    <glyph glyph-name="space" unicode=" " horiz-adv-x="245" 
 />
    <glyph glyph-name="sterling" unicode="&#xa3;" horiz-adv-x="583" 
d="M225 79l2 -3c74 -5 145 -42 224 -42c32 0 62 6 93 19l-24 -98c-33 -17 -54 -20 -76 -20c-106 0 -199 66 -290 66c-28 0 -63 -6 -100 -36l-22 71c101 39 144 116 144 199v15h-93v82h89c-6 58 -19 110 -19 155c0 129 104 178 196 178c60 0 126 -21 160 -49l-22 -91
c-26 27 -85 49 -134 49c-63 0 -80 -36 -80 -86c0 -41 11 -96 16 -156h122v-82h-120c-2 -55 -22 -120 -66 -171z" />
    <glyph glyph-name="t" unicode="t" horiz-adv-x="332" 
d="M90 106v287h-57v60l65 10l18 136h84v-139h88v-67h-88v-264c0 -40 6 -51 29 -51c17 0 31 6 64 24l18 -79c-25 -21 -77 -35 -122 -35c-81 0 -99 45 -99 118z" />
    <glyph glyph-name="thorn" unicode="&#xfe;" horiz-adv-x="575" 
d="M325 475c144 0 207 -117 207 -246c0 -131 -66 -241 -209 -241c-60 0 -114 17 -145 55v-303h-109v1000h106v-333h4c32 38 95 68 146 68zM307 391c-40 0 -99 -26 -129 -65v-195c40 -49 84 -56 119 -56c87 0 126 68 126 152c0 80 -35 164 -116 164z" />
    <glyph glyph-name="three" unicode="3" horiz-adv-x="529" 
d="M96 520l-26 92c50 31 121 53 186 53c112 0 191 -66 191 -163c0 -70 -41 -113 -95 -143c79 -27 127 -79 127 -165c0 -112 -81 -206 -245 -206c-83 0 -152 24 -204 68l28 91c47 -38 105 -63 170 -63c84 0 128 41 128 116c0 68 -36 110 -128 110h-27v87h31
c58 0 92 41 92 102c0 54 -39 74 -85 74c-51 0 -112 -24 -143 -53z" />
    <glyph glyph-name="tilde" unicode="&#x2dc;" horiz-adv-x="311" 
d="M311 648c-8 -43 -32 -92 -90 -92c-31 0 -87 14 -133 14c-30 0 -57 -6 -75 -25l-13 23c15 49 32 91 98 91c38 0 89 -14 125 -14c24 0 49 6 76 26z" />
    <glyph glyph-name="trademark" unicode="&#x2122;" horiz-adv-x="712" 
d="M441 369l-59 165v-165h-68v284h90l71 -201l70 201h89v-284h-68v164l-60 -164h-65zM281 653v-64h-74v-220h-68v220h-74v64h216z" />
    <glyph glyph-name="two" unicode="2" horiz-adv-x="504" 
d="M73 527l-23 86c51 28 133 52 201 52c113 0 194 -65 194 -164c0 -135 -152 -271 -260 -401h267v-100h-405v100c104 142 285 274 285 393c0 57 -42 79 -101 79c-57 0 -116 -21 -158 -45z" />
    <glyph glyph-name="u" unicode="u" 
d="M65 460h110v-299c0 -54 32 -84 77 -84c47 0 89 33 107 91v292h111v-460h-86l-6 64h-4c-30 -60 -94 -76 -151 -76c-87 0 -158 38 -158 159v313z" />
    <glyph glyph-name="uacute" unicode="&#xfa;" 
d="M65 460h110v-299c0 -54 32 -84 77 -84c47 0 89 33 107 91v292h111v-460h-86l-6 64h-4c-30 -60 -94 -76 -151 -76c-87 0 -158 38 -158 159v313zM183 532l-8 3l-15 36l3 7l180 101c4 2 7 3 10 3c18 0 30 -29 30 -52c0 -14 -4 -26 -13 -29z" />
    <glyph glyph-name="ucircumflex" unicode="&#xfb;" 
d="M65 460h110v-299c0 -54 32 -84 77 -84c47 0 89 33 107 91v292h111v-460h-86l-6 64h-4c-30 -60 -94 -76 -151 -76c-87 0 -158 38 -158 159v313zM259 673h8l110 -99l3 -7l-16 -29l-7 -3l-94 41l-94 -41l-7 3l-16 29l3 7z" />
    <glyph glyph-name="udieresis" unicode="&#xfc;" 
d="M65 460h110v-299c0 -54 32 -84 77 -84c47 0 89 33 107 91v292h111v-460h-86l-6 64h-4c-30 -60 -94 -76 -151 -76c-87 0 -158 38 -158 159v313zM137 612c0 30 26 59 57 59c30 0 59 -29 59 -59c0 -31 -29 -57 -59 -57c-31 0 -57 26 -57 57zM273 612c0 30 26 59 57 59
c30 0 59 -29 59 -59c0 -31 -29 -57 -59 -57c-31 0 -57 26 -57 57z" />
    <glyph glyph-name="ugrave" unicode="&#xf9;" 
d="M65 460h110v-299c0 -54 32 -84 77 -84c47 0 89 33 107 91v292h111v-460h-86l-6 64h-4c-30 -60 -94 -76 -151 -76c-87 0 -158 38 -158 159v313zM331 534l-8 -3l-187 69c-9 3 -13 15 -13 29c0 23 12 52 30 52c3 0 6 -1 10 -3l180 -101l3 -7z" />
    <glyph glyph-name="underscore" unicode="_" horiz-adv-x="471" 
d="M19 0h433v-82h-433v82z" />
    <glyph glyph-name="uni00AD" unicode="&#xad;" horiz-adv-x="466" 
d="M65 280h336v-82h-336v82z" />
    <glyph glyph-name="v" unicode="v" horiz-adv-x="524" 
d="M517 460l-190 -460h-133l-184 460h115l139 -369l145 369h108z" />
    <glyph glyph-name="w" unicode="w" horiz-adv-x="822" 
d="M511 0l-99 320l-99 -320h-133l-167 460h115l120 -353l109 353h110l109 -353l120 353h113l-167 -460h-131z" />
    <glyph glyph-name="x" unicode="x" horiz-adv-x="508" 
d="M24 460h125l108 -155l103 155h125l-168 -223l178 -237h-125l-117 168l-114 -168h-125l177 235z" />
    <glyph glyph-name="y" unicode="y" horiz-adv-x="519" 
d="M108 460l160 -327l128 327h106l-190 -464c-38 -92 -131 -252 -263 -252c-10 0 -15 1 -21 3l-19 86c4 -1 7 -3 24 -3c25 0 50 4 75 20c48 30 81 85 114 165l-229 445h115z" />
    <glyph glyph-name="yacute" unicode="&#xfd;" horiz-adv-x="519" 
d="M108 460l160 -327l128 327h106l-190 -464c-38 -92 -131 -252 -263 -252c-10 0 -15 1 -21 3l-19 86c4 -1 7 -3 24 -3c25 0 50 4 75 20c48 30 81 85 114 165l-229 445h115zM210 532l-8 3l-15 36l3 7l180 101c4 2 7 3 10 3c18 0 30 -29 30 -52c0 -14 -4 -26 -13 -29z" />
    <glyph glyph-name="ydieresis" unicode="&#xff;" horiz-adv-x="519" 
d="M108 460l160 -327l128 327h106l-190 -464c-38 -92 -131 -252 -263 -252c-10 0 -15 1 -21 3l-19 86c4 -1 7 -3 24 -3c25 0 50 4 75 20c48 30 81 85 114 165l-229 445h115zM258 612c0 30 26 59 57 59c30 0 59 -29 59 -59c0 -31 -29 -57 -59 -57c-31 0 -57 26 -57 57z
M122 612c0 30 26 59 57 59c30 0 59 -29 59 -59c0 -31 -29 -57 -59 -57c-31 0 -57 26 -57 57z" />
    <glyph glyph-name="yen" unicode="&#xa5;" horiz-adv-x="647" 
d="M112 255h156v12l-25 41h-131v82h82l-163 270h129l169 -299l162 299h127l-163 -270h76v-82h-126l-22 -37v-16h148v-82h-148v-173h-115v173h-156v82z" />
    <glyph glyph-name="z" unicode="z" horiz-adv-x="418" 
d="M42 89l210 282h-200v89h314v-89l-216 -282h226v-89h-334v89z" />
    <glyph glyph-name="zcaron" unicode="&#x17e;" horiz-adv-x="418" 
d="M209 535h-8l-110 99l-3 7l16 29l7 3l94 -41l94 41l7 -3l16 -29l-3 -7zM42 89l210 282h-200v89h314v-89l-216 -282h226v-89h-334v89z" />
    <glyph glyph-name="zero" unicode="0" horiz-adv-x="635" 
d="M318 665c170 0 266 -157 266 -335s-96 -342 -273 -342c-172 0 -259 155 -259 334c0 190 98 343 266 343zM315 84c101 0 147 106 147 245c0 141 -48 240 -148 240c-99 0 -139 -98 -139 -240c0 -161 51 -245 140 -245z" />
    <glyph glyph-name="zerosuperior" unicode="&#x2070;" horiz-adv-x="409" 
d="M205 665c99 0 157 -85 157 -184c0 -97 -58 -187 -161 -187c-101 0 -153 84 -153 183c0 105 59 188 157 188zM202 359c53 0 75 54 75 120c0 71 -24 121 -74 121c-51 0 -69 -49 -69 -117c0 -82 25 -124 68 -124z" />
    <glyph glyph-name="twosuperior" unicode="&#xb2;" horiz-adv-x="377" 
d="M90 542l-17 64c43 39 84 59 131 59c67 0 106 -41 106 -96c0 -76 -76 -137 -163 -208h163v-62h-252v62c65 73 180 125 180 199c0 17 -6 45 -42 45c-34 0 -77 -26 -106 -63z" />
    <glyph glyph-name="threesuperior" unicode="&#xb3;" horiz-adv-x="340" 
d="M83 576l-11 59c31 19 54 30 91 30c67 0 108 -37 108 -89c0 -36 -19 -58 -47 -75c41 -14 66 -42 66 -90c0 -61 -42 -117 -139 -117c-49 0 -73 14 -103 38l12 60c28 -23 47 -38 87 -38c50 0 73 23 73 62c0 34 -19 55 -84 55h-12v54h15c42 0 63 18 63 47c0 18 -8 33 -41 33
c-34 0 -61 -15 -78 -29z" />
    <glyph glyph-name="zeroinferior" unicode="&#x2080;" horiz-adv-x="421" 
d="M211 366c99 0 157 -85 157 -184c0 -97 -58 -187 -161 -187c-101 0 -153 84 -153 183c0 105 59 188 157 188zM208 60c53 0 75 54 75 120c0 71 -24 121 -74 121c-51 0 -69 -49 -69 -117c0 -82 25 -124 68 -124z" />
    <glyph glyph-name="oneinferior" unicode="&#x2081;" horiz-adv-x="256" 
d="M182 366v-366h-75v266l-57 -28l-13 52z" />
    <glyph glyph-name="twoinferior" unicode="&#x2082;" horiz-adv-x="359" 
d="M80 243l-17 64c43 39 84 59 131 59c67 0 106 -41 106 -96c0 -76 -76 -137 -163 -208h163v-62h-252v62c65 73 180 125 180 199c0 17 -6 45 -42 45c-34 0 -77 -26 -106 -63z" />
    <glyph glyph-name="threeinferior" unicode="&#x2083;" horiz-adv-x="342" 
d="M79 277l-11 59c31 19 54 30 91 30c67 0 108 -37 108 -89c0 -36 -19 -58 -47 -75c41 -14 66 -42 66 -90c0 -61 -42 -117 -139 -117c-49 0 -73 14 -103 38l12 60c28 -23 47 -38 87 -38c50 0 73 23 73 62c0 34 -19 55 -84 55h-12v54h15c42 0 63 18 63 47c0 18 -8 33 -41 33
c-34 0 -61 -15 -78 -29z" />
    <glyph glyph-name="fourinferior" unicode="&#x2084;" horiz-adv-x="374" 
d="M319 153v-62h-34v-91h-68v91h-182v62l147 213h103v-213h34zM107 153h110v154z" />
    <glyph glyph-name="fraction" unicode="&#x2044;" horiz-adv-x="520" 
d="M537 691l-463 -715h-90l463 715h90z" />
    <glyph glyph-name="percent" unicode="%" horiz-adv-x="838" 
d="M694 691l-463 -715h-90l463 715h90zM193 665c99 0 157 -85 157 -184c0 -97 -58 -187 -161 -187c-101 0 -153 84 -153 183c0 105 59 188 157 188zM190 359c53 0 75 54 75 120c0 71 -24 121 -74 121c-51 0 -69 -49 -69 -117c0 -82 25 -124 68 -124zM646 366
c99 0 157 -85 157 -184c0 -97 -58 -187 -161 -187c-101 0 -153 84 -153 183c0 105 59 188 157 188zM643 60c53 0 75 54 75 120c0 71 -24 121 -74 121c-51 0 -69 -49 -69 -117c0 -82 25 -124 68 -124z" />
    <glyph glyph-name="perthousand" unicode="&#x2030;" horiz-adv-x="1196" 
d="M695 691l-463 -715h-90l463 715h90zM194 665c99 0 157 -85 157 -184c0 -97 -58 -187 -161 -187c-101 0 -153 84 -153 183c0 105 59 188 157 188zM191 359c53 0 75 54 75 120c0 71 -24 121 -74 121c-51 0 -69 -49 -69 -117c0 -82 25 -124 68 -124zM647 366
c99 0 157 -85 157 -184c0 -97 -58 -187 -161 -187c-101 0 -153 84 -153 183c0 105 59 188 157 188zM644 60c53 0 75 54 75 120c0 71 -24 121 -74 121c-51 0 -69 -49 -69 -117c0 -82 25 -124 68 -124zM1005 366c99 0 157 -85 157 -184c0 -97 -58 -187 -161 -187
c-101 0 -153 84 -153 183c0 105 59 188 157 188zM1002 60c53 0 75 54 75 120c0 71 -24 121 -74 121c-51 0 -69 -49 -69 -117c0 -82 25 -124 68 -124z" />
    <glyph glyph-name="onehalf" unicode="&#xbd;" horiz-adv-x="779" 
d="M643 691l-463 -715h-90l463 715h90zM179 665v-366h-75v266l-57 -28l-13 52zM514 243l-17 64c43 39 84 59 131 59c67 0 106 -41 106 -96c0 -76 -76 -137 -163 -208h163v-62h-252v62c65 73 180 125 180 199c0 17 -6 45 -42 45c-34 0 -77 -26 -106 -63z" />
    <glyph glyph-name="onethird" unicode="&#x2153;" horiz-adv-x="773" 
d="M527 277l-11 59c31 19 54 30 91 30c67 0 108 -37 108 -89c0 -36 -19 -58 -47 -75c41 -14 66 -42 66 -90c0 -61 -42 -117 -139 -117c-49 0 -73 14 -103 38l12 60c28 -23 47 -38 87 -38c50 0 73 23 73 62c0 34 -19 55 -84 55h-12v54h15c42 0 63 18 63 47c0 18 -8 33 -41 33
c-34 0 -61 -15 -78 -29zM640 691l-463 -715h-90l463 715h90zM179 665v-366h-75v266l-57 -28l-13 52z" />
    <glyph glyph-name="onequarter" unicode="&#xbc;" horiz-adv-x="773" 
d="M734 153v-62h-34v-91h-68v91h-182v62l147 213h103v-213h34zM522 153h110v154zM641 691l-463 -715h-90l463 715h90zM179 665v-366h-75v266l-57 -28l-13 52z" />
    <glyph glyph-name="twothirds" unicode="&#x2154;" horiz-adv-x="777" 
d="M71 542l-17 64c43 39 84 59 131 59c67 0 106 -41 106 -96c0 -76 -76 -137 -163 -208h163v-62h-252v62c65 73 180 125 180 199c0 17 -6 45 -42 45c-34 0 -77 -26 -106 -63zM688 691l-463 -715h-90l463 715h90zM532 277l-11 59c31 19 54 30 91 30c67 0 108 -37 108 -89
c0 -36 -19 -58 -47 -75c41 -14 66 -42 66 -90c0 -61 -42 -117 -139 -117c-49 0 -73 14 -103 38l12 60c28 -23 47 -38 87 -38c50 0 73 23 73 62c0 34 -19 55 -84 55h-12v54h15c42 0 63 18 63 47c0 18 -8 33 -41 33c-34 0 -61 -15 -78 -29z" />
    <glyph glyph-name="threequarters" unicode="&#xbe;" horiz-adv-x="774" 
d="M71 576l-11 59c31 19 54 30 91 30c67 0 108 -37 108 -89c0 -36 -19 -58 -47 -75c41 -14 66 -42 66 -90c0 -61 -42 -117 -139 -117c-49 0 -73 14 -103 38l12 60c28 -23 47 -38 87 -38c50 0 73 23 73 62c0 34 -19 55 -84 55h-12v54h15c42 0 63 18 63 47c0 18 -8 33 -41 33
c-34 0 -61 -15 -78 -29zM663 691l-463 -715h-90l463 715h90zM736 153v-62h-34v-91h-68v91h-182v62l147 213h103v-213h34zM524 153h110v154z" />
    <glyph glyph-name="---Components---" horiz-adv-x="0" 
 />
    <glyph glyph-name="Dcroat" unicode="&#x110;" horiz-adv-x="714" 
d="M94 385v275c36 3 162 5 204 5c128 0 209 -28 263 -75c70 -61 101 -160 101 -274c0 -174 -73 -327 -383 -327c-56 0 -123 4 -185 11v311h-74v74h74zM209 385h148v-74h-148v-223c37 -3 74 -4 98 -4c162 0 232 72 232 247c0 157 -56 238 -243 238c-18 0 -52 0 -87 -1v-183z
" />
    <glyph glyph-name="uni03BC" unicode="&#x3bc;" horiz-adv-x="546" 
d="M72 460h110v-299c0 -54 32 -84 77 -84c47 0 89 34 107 92v291h111v-460h-86l-6 64h-4c-30 -60 -94 -76 -150 -76c-28 0 -53 4 -75 12l-2 -8c-14 -56 -28 -93 -54 -150l-104 47c47 90 76 160 76 258v313z" />
    <glyph glyph-name="kgreenlandic" unicode="&#x138;" horiz-adv-x="493" 
d="M455 460l-164 -162l196 -298h-120l-149 226l-39 -39v-187h-110v460h110v-147l153 147h123z" />
    <glyph glyph-name="schwa" unicode="&#x259;" horiz-adv-x="505" 
d="M227 -12c-117 0 -184 62 -184 170c0 29 8 70 19 85h290c-5 79 -49 145 -135 145c-49 0 -110 -21 -149 -49l-18 82c35 22 104 54 184 54c149 0 230 -113 230 -242c0 -132 -84 -245 -237 -245zM230 74c54 0 96 34 114 91h-191c-1 -4 -2 -9 -2 -17c0 -43 33 -74 79 -74z" />
    <glyph glyph-name="minus" unicode="&#x2212;" horiz-adv-x="552" 
d="M69 280h414v-82h-414v82z" />
    <glyph glyph-name="IJ" unicode="&#x132;" horiz-adv-x="552" 
d="M203 660v-660h-115v660h115zM465 660v-559c0 -141 -61 -257 -194 -257l-22 87c94 0 101 94 101 171v558h115z" />
    <glyph glyph-name="ij" unicode="&#x133;" horiz-adv-x="461" 
d="M179 460v-460h-110v460h110zM53 608c0 37 32 73 71 73c37 0 73 -36 73 -73c0 -39 -36 -71 -73 -71c-39 0 -71 32 -71 71zM392 460v-463c0 -136 -61 -255 -175 -255c-10 0 -20 1 -24 3l-18 67c4 -2 13 -3 21 -3c80 0 86 112 86 189v462h110zM266 608c0 37 32 73 71 73
c38 0 73 -36 73 -74s-36 -70 -74 -70s-70 33 -70 71z" />
    <glyph glyph-name="CR" unicode="&#xd;" horiz-adv-x="245" 
 />
    <glyph glyph-name="uni00A0" unicode="&#xa0;" horiz-adv-x="245" 
 />
    <glyph glyph-name="NULL" horiz-adv-x="0" 
 />
    <glyph glyph-name="NULL" horiz-adv-x="0" 
 />
    </font>
</defs>
</svg>
